<svg id="Capa_1" data-name="Capa 1" xmlns="http://www.w3.org/2000/svg" viewBox="0 0 979.52 971.54"><defs><style>.cls-1{fill:red;}</style></defs><path class="cls-1" d="M989.76,496.51v5.82c-4.17,5.14-2.51,10.72-1.26,16.28q-.18,2.83-.34,5.67c-2.29,1.15-2,2.91-1.13,4.79a1.16,1.16,0,0,1,.05,1q-2.94,1.33,0,2.69c0,1.05,0,2.09-.07,3.13-2,1.59-4.63,3-4.58,5.7,0,1.61,2.38,1.43,3.89,1.49a3,3,0,0,1-.43,3.47c-3,5.59-4.41,11.34-1.89,17.51,0,.78,1,1.64-.21,2.3-7.1,2.35-2.11,6.39-1.4,9.83,0,.15.14.32.1.46a5.16,5.16,0,0,1-.34.81l-1.38-1.32s-.14.09-.21.14l1.54,1.3.28.25c-2.79,2.71-4.33,5.69-2,9.48l-.5,5.83c-2.3-.08-2.75,1.22-3,3.28-1,8-2.19,15.91-5,23.57-1,2.79-2.7,6-.83,9.26l-.42,2.34a3,3,0,0,0-2.86,2.48,67,67,0,0,1-7.37,22.1c-2.25,4.17-2.63,10.64-9.22,11.78a2.09,2.09,0,0,0-1.85,2,2,2,0,0,0,2.13,2.23c3.12-.5,3.56,1.73,4.37,3.71a2,2,0,0,1-1.2,2.32c-.58,0-1.3-.16-1.7.12-2.49,1.73-5.25-.8-7.75.6-4.86,2.73,4.4,3.75.77,6.35a1.18,1.18,0,0,0-.23,1.07c.65,2.11.55,4.63,3,5.83l-1.35,5.08c-6.21,1.69-7.07,3.42-6.51,13.19L940.3,712c-2.32.3-2.08,2-2,3.64a1.17,1.17,0,0,1-.39,1c-4.76,1.06-4.49,4.69-4.27,8.29l0-.05c-4.61,1.09-9.23,0-13.82-.18-5.58-.19-8.5,1.93-8.56,7.53a8.34,8.34,0,0,1-4.68,7.53c-3.57,1.91-8,3-4,8.36.2.26-.53,1.35-1,1.93-1,1.33-3.06,2.84-.7,4.22A3.55,3.55,0,0,0,906,752a18,18,0,0,1,3.85-7c1-1.21,1.87-2,3.31-.66,4.12,3.76,4.38,7.51.35,11.84-1.94,2.09-2.7,4.14-1.89,6.81a.33.33,0,0,1-.5.25c-3.72,0-7.45-1.63-11.18.16a2.15,2.15,0,0,0-1.38,2.73c.55,1.89,1.48.87,2.49.27,2.46-1.46,3,.13,3.11,2.13.1,1.52.14,3,.21,4.56a1.26,1.26,0,0,1-1,1.8c-2.53,0-2.78,1.67-2.62,3.61l0,0c-1.52,0-3.88-.65-4.24,1-1.56,6.73-4.4,1.65-7,.56-1.29,3.66-.44,7,.14,11-4-2-6.13-.1-8.34,2.63-1.64,2-3.1,4.61-5.85,5.46-1.39.43-3.33.77-3.84-1.35A2.25,2.25,0,0,1,874,795c3.09,0,3.62-2.71,5.34-4,6.51-4.83.75-8.39-1.07-11.69-1.54-2.8-6.22-.82-8.93-2.88a2.73,2.73,0,0,0-1.08,1.09,2,2,0,0,0,1,2.48c1.38.64,3.06.74,4.34,1.5,1.47.87,3.36,3.58,1.94,4-4.7,1.31-4.07,5.71-5,8.38-1.33,3.84-6.18,8.51-1.79,12.36s1.07,4.94-1.32,6.37c-3.73,2.24-6.66-.92-8.48-2.95-2.68-3-6-2.06-8.92-3.08a2.15,2.15,0,0,0-2.63,1.75c-.25,1.26,1.13,1.25,1.82,1.82,2.62,2.16,5.72,2,8.83,2.27,1.8.15,3.54,1.31,3.42,3.32-.09,1.44-2.3,2.51-3,1.72-2.55-2.71-5.11-.52-7.62-.55s-5.14.37-5.29-3.53c-.12-2.89-2.67-2.33-4.51-2.2-2.73.2-1.75,2-1.76,3.8,0,4.89,2.67,7,7.89,7.49-3.94,3.29-9,4.76-7.42,10.58.42,1.62.25,3.89-1.94,4.28s-3.46-1-3.93-3.28-1.85-5.1-4.67-3.5c-4.18,2.36-3.64-.28-4.45-2.83-.66-2.06,1.23-5-2.14-6.39-.77-.33,1.61-2.87,1.67-2.67,1.06,3.77,6.62,1.36,7.29,5.37.2,1.25-.12,3.29,1.81,3,2.69-.43.31-2.47.74-3.67a7.42,7.42,0,0,0-.75-6.61,3.78,3.78,0,0,1,.51-4.85c2-1.89,2.49-3.5.67-6-1-1.42-.81-5.33.75-4.78,7.84,2.78,7.17-1.51,6.83-6.67-.09-1.29,1.49-2.84-.47-3.82-2.58-1.29-2.72,1-3.46,2.52s-2.28,4.44-3.14,3.37c-3-3.64-8.45-.58-11.36-5.94-3.7-6.81-7,3.24-11.54,2.19-1.77-.41-2.06,2.47-2.23,4.11-.13,1.27,1.24,1.23,2.15,1.42,1.4.3,2.11,1.17,1.62,2.49-.53,1.47-1.56,2.32-3.1,1-.91-.77-1.87-1-2.18.32-.27,1.15-1,2.87.86,3.43,4.2,1.22,2.75,2.7.41,4.48-2.1,1.6-2.39,4-.2,5.18s5.68,1.61,4.13,4.82c-1.4,2.89-3.29-1.32-5.36-.82-3,.71-6,1-7-2.94-.42-1.68-.86-3.09-3-2.68s-1.76,2.25-1.83,3.74a25.13,25.13,0,0,0,0,4.07c.46,4-1.51,5.71-5.09,4.6-3.78-1.17-5.86-.61-6.82,3.43-.53,2.25-2.83,3.65-4.26,1.69-1.57-2.17-2.8-6.06-1.39-8.08,2.55-3.66,3.74-7,2.39-11.22-.41-1.29,1.91-3-.45-4-1.87-.75-2.53.84-3.59,2.05-1.93,2.22-4.71,1-7.15,1-1.11,0-2-1.64-1.58-1.93,3.13-2,1.19-6.35,3.92-8.24,1.22-.84,3.14-3.92,4.53.35.71,2.2,3.07,2.37,5,1.32,1.68-.94,3.5-2.24,1.67-4.59-1.49-1.92-1-3.35,1.22-3.93s5,.52,4.23,2.44c-2.47,6.29,3.56,8.15,5.54,12,1.56,3.09,4.16,2.92,7,1.62a2.43,2.43,0,0,0,1.75-2.64c-.15-1.59-1.16-1.71-2.51-1.36-3.67,1-3-1.75-3.22-3.79-.82-8.82-1.83-10.21-10.41-11.89-2.65-.52-3.86-1.35-3.76-4l1.39-.83c3.13,1.55,3.38-4.29,6.88-2.51s4.57-.67,4.42-3.5c-.1-1.74-1.19-4,1.44-3.94,3.3.1,1.28,2.7,1.42,4.41.26,3.07.24,7.12,4.63,7,3.17-.12,6.31-1.74,9.4-2.86,1.37-.49,3.4-.92,3-3s-2.65-1.77-3.91-1.36c-6,1.95-8.23-1.93-10.39-6,1.45-2.14,4.51.77,4.65-1,.31-3.85,4.15-7.59.7-11.62l1.21-1.27c3.71.56,8.6,0,9.8-2.57,2.22-4.75,4.86-9.86,4.19-15.57l1.16-.53c4.27,1.18,1.69-1.58,1.66-2.87l.16-.13c4.28-.17,5.08-3,5.08-6.5l-.06.06c2.86.15,6.24.84,7.83-2.07,1.06-1.94-.25-4.37-2-6,0-2.14,1.77-3.18,3-4.56,5.94-2.76,8.23-7.85,9-13.91.12-.41.25-.82.38-1.23,1.28-.34,3.15.8,3.64-1.37,0-.19-1.12-.65-1.73-1,.16-.77.32-1.54.47-2.31,1.7-.4,2-1.42,1.25-2.86l.11-.12c4.09-1.36,9.72-12.15,9.06-17.38l.32-.26c5.25-1.12,9-8.51,7.74-15.45a7.54,7.54,0,0,1,2.5-5.87c6,.64,3.74-3.06,3.16-5.89a2.72,2.72,0,0,1,.43-3.43c3.61-2.1,6.46-9.19,6-15a7.71,7.71,0,0,1,1.51-4.88c3.17,0,2.87-2.79,3.56-4.55,2.71-6.91,2.17-14.85,6.88-21.19.86-1.16-.67-1.93-1.93-2.11.05-1.29-.07-2.65,1.27-3.47,3.92-3.22,3.29-7.4,2.45-11.62l.24-2.39c1.77-.54,2.22-1.3.41-2.44.29-1.93.57-3.86.86-5.79,4.63-1.16,3.06-4.08,2-6.86a2.83,2.83,0,0,1,.13-3.55c2.93-1.21,2.44-2.88.65-4.73l.54-5.58c4-3.78,3.9-8.22,2.17-12.94a51.88,51.88,0,0,1,.65-14c1.72-.8,1.62-1.61,0-2.45a3.68,3.68,0,0,1,.36-3.39c.75-.09,1.64-.13,1.77-1s-.7-1.16-1.45-1.31c0-1.16.05-2.32.08-3.48a14.11,14.11,0,0,0,3-10.81c-.24-2.11-.83-4.29-3.7-4.37-1.23-2.78-3.52-2.69-5.91-2.05a42.73,42.73,0,0,1-15.51,1.26c-13.75-1.61-27.7-3.85-40.78-8.18-14.42-4.78-27.62-12.74-40.24-21.43-23-15.84-41.77-36-60.07-56.7s-36.26-42-56.35-61.19a296.26,296.26,0,0,0-33.32-26.93,193.89,193.89,0,0,0-36.14-20.33,186.08,186.08,0,0,0-63.09-14.78c-28.32-1.59-56.31-.67-83.24,10.94-22.09,9.54-41.52,22.07-56.73,40.65-20.05,24.49-33.48,51.65-33.52,84.08,0,23.43,5.77,44.45,24.52,60.34,2,1.7,3.82,3.68,6.56,2.78,2.55-.84,2.72-3.57,3.25-5.78,8-33.67,27.71-56.66,61.42-67.11,5.35-1.66,9.47-4.44,11.54-10.57,5.54-16.43,16.19-29.16,30.78-38.72,12.52-8.19,26-14.35,41-15,18.49-.82,37.05-1.39,55.55,1.13a156.53,156.53,0,0,1,45.9,14,153.69,153.69,0,0,1,38.24,25c17.2,15.66,32.53,32.92,44.48,53,19.24,32.3,28.57,67.44,29.19,104.74.25,15.11-1.93,30.24-4.58,45.2-3.68,20.78-10.47,40.59-19.09,59.76-6.82,15.18-15.87,29.17-25.57,42.64-4.64,6.45-8.79,13.38-14.78,18.82-5.61.53-9.28,2.8-8.29,9.21l-.06,0c-1.21.18-2.82,0-3.54.65s.66,1.36,1.45,1.78a2.65,2.65,0,0,1-1.46,2.23c-6.51,1.55-7.44,2.8-5.36,7.2l-12.07,13.82c-3.2,1.06-6.07-4.81-8.75-1.15-1.91,2.61,2.26,5.15,2.71,8.07l-2.2,2.31c-8.85-4.26-10-3.67-10.5,5.73-.11,1.75-.1,4.45-1.92,4.29-7.74-.7-4.77,2.84-2.87,6.25.33.6.07,1.51.09,2.28l-1,1.33c-1.8.15-2.63,1-2,2.82v.05c-5.12,1.08-8-3-11.31-5.4-2.28-1.62,2.5-1.73,1.85-4-5.71-1-7.39,3.87-10.73,6.84,3.13,1.63,5.77,2.61,8.83,1.63,4.18-1.34,4,2.41,4.41,4.42.56,3-1.61,2.73-3.79,2.18-1-.26-2.41.67-3.37.34-3.83-1.34-8.34.7-11.76-2.17-3.77-3.16.39-5.91.68-8.87.15-1.55.2-3.4-2-3.46s-4.33.53-4.83,3.18c-.35,1.84.7,3.25,1.43,4.86a6.36,6.36,0,0,1-2.52,8.12c-2.41,1.56-5.63,4.22-8.72.51-.93-1.1-2-2.09-3.46-1.14-1.2.8-.58,2-.22,3.16,1.4,4.45-3.53,7-3.49,11.3,0,1.9-3.34.47-5.14.86-4.11.88-7,1.3-2.09,5.39a2.21,2.21,0,0,1,.37,2.14c-2,3.36-1.81,7.28-2.55,10.71-3,.64-2.43-6.15-6.23-2.37-.81.8-.22,3.11-2.14,2.87-2.19-.28-1.49-2.35-1.66-3.79-.27-2.28-2-5.37-3.57-3.28-3.49,4.64-4.89,1.7-7.32-.5-1-.93-2.89-1-4.39-1.37-2.58-.68-7.06,1.56-7.36-2.3-.26-3.38,4.32-2.9,7-3.62,2.25-.61,4.7-4.12,6.67-1.4,2.09,2.88,4.43,2.51,7,2.64,1.17.05,2.77.07,2.82,1.45.22,6,4.17,3,8.13,4.1A41.67,41.67,0,0,0,588.2,812c-3.3-3.05-3.58-5.57.69-8.22,2.24-1.4,3.83-3.31,7-3.39,3.54-.09,4.61-1.52,1.85-5.14s-5.45-8.27-.25-12.59c.62-.51.77-1.71.91-2.62.73-4.93-5.43-11.28-10.49-10.88-1.45.12-3,.51-3,2.12,0,2.42,2.07,2.31,3.84,2.51,4.58.53,6.94,4,5,8a13.38,13.38,0,0,0-1.13,5.52c-.7,11.18-3.14,14.58-12.24,17.05.48-5.66-.94-6.83-7-6-6.92.91-13.14,3.94-19.46,6.51-4,1.61-6.67,2-8.2-2.62-.73-2.21-2.2-3.52-4.37-2.16-4.56,2.87-3.85-.33-3.58-2.93.19-1.9.66-3.78,1-5.66l.09-.14c2.59-.61,3.08,2.68,4.31,2.81,3,.31,3.93,6.14,7.06,3.17s-1.94-4.08-2.79-6.3c-.6-1.55-2.35-3-1-4.75,1-1.4,2.48-.26,3.75.08,4.17,1.13,7.06-1.36,10-3.63a2.23,2.23,0,0,0,.44-2c-.31-.81-1.27-.78-2-.36-5.92,3.43-6.41.87-4.76-4.21.15-.46-.25-1.11-.4-1.67l.39.33-.35-.37c6.8.2,9.79-2.88,12.11-12.45l-.07.07c1.76.09,2.52-.79,2.44-2.48l3.82-3.15C576.76,755,580.34,752,582,747l0,0c1.83-.14,3.88-.07,2.71-2.93l.23-.17c3,1.13,2.74-1,2.87-2.82l.4-.18c6-4.47,8.06,2,12,5,.2-5.26-3.47-12,5.77-11.32-.23-2.09-4.83-2.38-2-4.42,1.79-1.28,2.79-3.78,6-3.85,3.48-.09,5.25-2.54,2.66-6.09a81.71,81.71,0,0,1,18.16-15.35c1.82.06,2.69-.72,2.35-2.59l-.06.07c2.63.47,2.71-1.3,2.77-3.1l0,0c1.9-.11,3.81-.19,2.77-3l.13,0c2.67,1,2.81-.72,2.89-2.55a.67.67,0,0,1,.88-.39c7.38.19,10.87-3.59,11.88-12.89l-.07.06c5.26-.09,7.15-3.23,7.25-8l0,0c2.27-.23,3.48-1.39,3.29-3.75l-.06.08c1.86.08,2.54-.91,2.4-2.63,0-2.16,1.52-3.46,2.71-4.95,3.08-3.85,6.66-7.41,9.13-11.62,9-15.25,17.34-30.66,23.37-47.57,6.41-18,9.47-36.17,10.57-54.8,1.29-22.08-.42-43.94-6.63-65.5a135,135,0,0,0-19.27-40.34,153.69,153.69,0,0,0-34.59-35.22,144.42,144.42,0,0,0-60-26c-19.23-3.67-38.38-.85-56.53,7.62-9.36,4.38-16.23,11.45-23.33,18.38-2.37,2.32-1,6.3,2,6.5,12.53.82,23.26,6.22,33.65,12.64a84.48,84.48,0,0,1,37.17,47.77c1.93,6.1,4.71,10.81,11.36,13.22,31.14,11.29,47.15,35.05,52.54,66.27,3.35,19.41,2.63,39.15.31,58.77-2.43,20.61-10,39.57-20.1,57.31a171.2,171.2,0,0,1-23.08,31.08,229.09,229.09,0,0,1-36.88,32.33c-15.61,11-32.48,19-50.11,25.81-14.15,5.46-29,7.83-43.93,10-21.42,3.06-42.71,1.29-63.83-1.76-15.58-2.25-30.77-6.66-45.69-12a267.34,267.34,0,0,1-30.65-13c-13.68-7-25.95-16.39-38.53-25.27-23.88-16.85-44.71-37.29-67.57-55.31-21.17-16.7-42.48-33.16-67.45-44.13a143.62,143.62,0,0,0-40.42-11.47c-4.25-.52-8.8-.71-10.63,4.67,0,1.52-.21,3.17,1.94,3.5l.48,2.3c.3,3.19-4,7.69,2.62,9.09l-.07-.06c.11,2.28-1.82,5.32,2.29,6.14.91.65.57,1.56.49,2.42-.21,6.47,1.92,12,6.94,16.21.1.14.29.3.26.42a6,6,0,0,1-.35.92,5.22,5.22,0,0,0-.13,3.92c3,7.17,6.93,14,8.19,21.81.33,2.05,2.5,2.07,4.27,2.07h0c-1.69,5.37,4.91,9.36,2.35,15.15h5.83v0c.17,2.51.23,5.08,3.45,5.79l.82,1c-.47.47-1.39,1-1.32,1.38.27,1.38,1.57,1.05,2.58,1.16,1,.51.66,1.4.63,2.2-.76,4.17,1.63,6.07,5.2,7.12.2.55.39,1.1.59,1.64-.35,2.75,1.32,4.66,2.68,6.75.6.91,2.08,2.2-.13,3.18-4.8,2.15,0,2.9.64,4.25,2.91-1.47,4.86,1.85,7.54,1.5l.74,1.41c.25,3.47-.93,8,5.23,7.2l.36,0,.3.21c-1.88,3,.48,2.81,2.3,3h0a7.86,7.86,0,0,1-1.43,5.65h5.17l-.06-.07c.06,2.58-.3,4.94-4.8,5.94,5.82,1.41,8.89,5.5,13.83,4.83l.08.2c.59,2.55-.59,4.55-3.24,7.07,4.38-1,7.2.78,10.29.81a2.1,2.1,0,0,1,1.36,2.07c-.11,9.2,5.38,15,14.49,15.35a1.32,1.32,0,0,1,.94.43c-.79,4.78.53,7.41,6,5.78l.12,0c-2.15,2.92,3.16,4.92.95,8-1.06,1.46-3.25,3.14-1.75,5,1.35,1.65,3.1-.56,4.71-.91,5.75-1.21,7.27,3.88,9.44,7.05,2.55,3.71-2,2.15-3.24,3a2.9,2.9,0,0,0-1.26,3c.5,5-1.57,6.73-6.54,5.4a16.37,16.37,0,0,0-3.36,0c-2.56,0-2.89,2.78-4.48,4.07-.59.48-.68,1.84.17,1.9,3.22.2,4.21,3.21,6.4,4.67s6.75-1.29,7,2c.4,4.58-5.58,2.07-7.61,4.67-.22.28-1,.11-2.07.19,1.51-4.89-1.05-6-4.94-8.29-4.48-2.58-11.26-1.53-13.79-8-.61-1.54-4-2.35-6.41-1.49-1.44.51-3.4,1.14-2.81,3.09,1.22,4-1.41,3.61-3.76,3.54-3.61-.1-7.39.84-10.38-2.44a3.42,3.42,0,0,0-5.24.1,46.57,46.57,0,0,0-4,6.27c.92.31,1.48.69,2,.64,2.39-.29,5.68-1.8,6.26,1.72.51,3.07-2.86,2.8-5,3.1-2.54.36-2.56,2.05-2,3.87.72,2.35,2.42,4,4.76,2.56s4.88-1.38,6.92-2.84c3-2.16,4.42,0,5.25,2.16.9,2.41-.51,4.58-2.09,6.33-1.77,1.94-5.23,3.72-6.61,2.25-3.81-4.08-11.23-4.92-11.35-12.49,0-3.53-1.7-6.32-6.26-5.45-1.23.24-2.85.35-3.52-1.3s.11-2.93,1.18-4.2c4.36-5.12,3.58-6.93-3.05-8.83-1.78-.51-5.54.11-5.07-2.62.71-4.21-1.35-3.87-4.1-4-3.32-.16-5.56,1.07-5.56,4.38,0,3.85-2.16,5-5.35,5.55l0,0c.55-2.29-.69-2.78-2.63-2.55l-1-1.2c3.09-1.21,5.4-3.45,1.92-5.86-2.74-1.89-6.73-2-10.16-2.89l-.2-.2c2.07-4,.79-8.34-2.32-10.07-3-1.65-5.77-4.25-9.47-4.61-1.2-.29-1.33-1.27-1.47-2.25.87-.61,1.51-1.59,1.1-2.48-3.31-7.22,4.61-9.7,7.18-10.86,5.84-2.64,3.38-4.89,1.19-7.17-2.4-2.48-4.12-4.61-1.16-8.4-4.93,2-6.46,5.24-4,9.83,1.82,3.43.17,4.81-2,5.92-5,2.57-9.91.84-11.62-3.75-.81-2.19,3.28-9.21,5.9-9.9,1.35-.35,3-.51,2.78-2.22-.27-1.86-2.17-1.21-3.4-1.23-2.68,0-5.5-.56-7.73,1.66-.77.76-1.83,1-1.39,2.68.84,3.15.63,3.21-2.81,2.6l-.37-1.2c0-1.71,0-3.38-2.43-3.42-1.76-1.42-3.4-2.92-3.61-5.37.2-1.59.62-3,2.31-3.74,1-.41,2.58-.52,1.89-2.18-.52-1.26-1.9-2.87-3-2.07-2.33,1.67-3.82.72-4.7-1.07-1.16-2.37,1.76-2.48,2.77-3.64.85-1,2.61-1.61,1.58-3.17s-2.37-.59-3.55.2c-1.65,1.11-4.38,2.23-4.18-.67.36-5.26-2.84-3.67-5.43-3.74l0-.33c1.67-3.64.84-7.57-1.92-9.49-3.21-2.23-3.91-5.44-5.81-8.16-2.86-4.09-1.34-9.86-5.65-13.31-2.18-1.75-2.43-5.31-5.62-6.22a6.38,6.38,0,0,1-2.26-4.69c1.68-2,1-3.08-1.43-3.41C43.19,674,36.87,655.13,31.1,636c-7-23.14-11.36-46.65-14.94-70.44C13,544.48,13.28,523.18,11.56,502c-.12-1.46,1.16-3.52-1.32-4.34v-1.16c3.18-3.25,1.91-7.76,1.92-11.18,0-21.07,2.86-41.91,5.83-62.61a400.8,400.8,0,0,1,13.16-57.63A484.72,484.72,0,0,1,93,231.86c9.93-15.06,20.62-29.7,33-43,1.36-.1,3,0,1.71-2.15.54-1,1-2.07,2.22-2.42,2.76,0,5.41,0,3.85-4.05l.1-.11c5.35-.45,6.56-4.47,7.57-8.68h0c2.67.27,3.81-.94,3.49-3.57l0,0c2.29,0,2.45-1.55,2.49-3.23l1.21-1.35c7.68-1.5,10.54-4.37,9.86-9.9l.26.31-.2-.35c3.69-.32,8.14.23,6.8-5.86l.14-.18c4.7,1.09,6.78-4.6,11.28-4.52.31,0,.7-4,1-6.17a2.05,2.05,0,0,1,2-1.45c4.25.05,8.5.16,12.75.1,2,0,5,.43,4.48-2.76-.39-2.35-2.92-2.05-4.85-1.4-2.42.82-4.63,1.35-5.2-2.15a2.44,2.44,0,0,1,1.83-2c2.72.43,4.51-.25,4.14-3.47l-.06,0a2,2,0,0,0,2.48-2c7.37-5.52,13.79-12.34,22.33-16.29,1.61,3.49,4.38,3.92,8,4.06,4.76.2,9.5-3.82,14-.71s8.91,2,13.47,2.2a2.75,2.75,0,0,0,2.88-1.48c2-3.87-.46-16.65-3.82-19.65a38.19,38.19,0,0,1,14.35-2.22c2.82.13,3.82-2.5,4.66-4.55A3.18,3.18,0,0,0,269,78.41c-3.42-1-.55-3.19-.94-4.75a4.34,4.34,0,0,1,3.58-2.07c.41.83.75,2.33,1.26,2.4,4,.5,6.84,2.84,9.84,5.3,2.27,1.86,5.56,1.5,8.5,1.3,3.13-.21,3.21-2.91,4.11-5a2.35,2.35,0,0,1,2.79-1.53c10.57,1.74,20.86-1.36,31.3-1.83,1.71-.08,2.32-1.47,2.61-2.73a28.86,28.86,0,0,0,.44-5.19c.07-1.78,0-3.76,2.14-4.3a4.87,4.87,0,0,1,5.49,2.43c1.77,3,1.68,5.83-.16,9.22-1.65,3-6.32,6.4-2.83,10.22,4.1,4.49,5.55,8.86,3.35,14.83,2.48-4.31,9.21-5.7,8-11.69-1-5,2.15-10.39-1.82-15a2.23,2.23,0,0,1,.21-2.19c3.2-2.42,3.52-5,1.51-8.48-1.26-2.19,1.34-3.29,2.62-4.61a2.06,2.06,0,0,1,2.65-.55c1.88,1.24.38,2.73.15,4.14-1.25,7.57,4,13.91,11.95,14,4.09,0,5.69,1.62,5.44,5.58a73.35,73.35,0,0,0,.05,7.56c.09,2.37,1.93,3.26,3.81,3.87a3.19,3.19,0,0,0,3.93-1.74c.91-1.77.12-3.51-1.38-4.64-3.31-2.5-2.83-5-.46-7.85a9.16,9.16,0,0,0,2.24-6.45c-.08-2.11.48-4.15,3-4.22,2.79-.08,6.1-1.48,8.28,1,4.77,5.54,4.55,5.6,8.34,0,1.12-1.65,2.69-4.31,5-3,2.56,1.46.83,3.65-.59,5.33-1.28,1.51-2.47,3.07.82,3.41,2.27.24,4.69.47,4.12,3.5-.53,2.82-3.18,2.35-5.27,2.36-6.25,0-12.49-.05-18.74.06-1.59,0-4.29-.85-4.38,1.49-.12,3,2.87,2,4.49,1.88,8.73-.87,16.63.63,23.08,7a9.53,9.53,0,0,0,2.42,1.63c3.14,1.61,6.51.17,6.4-2.54-.36-8.21,4.59-17.46-4.07-24.41-1.56-1.25-2.08-4.64.35-4.38,4,.44,7.65-1.15,11.48-.53,1.22.2,2.36.54,2.8,1.75s-.45,2.26-1.39,2.93c-1.9,1.36-4.17,2.49-4.59,5-1,6.35-.55,12.77-.27,19.14a3.27,3.27,0,0,0,3.49,3.25,3.71,3.71,0,0,0,3.18-3.67,57.81,57.81,0,0,0,.1-7.56c-.26-5,2-6.93,7-7,10.6-.07,10.6-.21,10.6-10.93,0-8,0-8,7.62-6.6,1.14.2,2.35,0,3.5.14,6.2,1,11.69-1.16,17.13-3.68,1.72-.79,4.64-.63,2.77,1.74-3.76,4.75-2.3,9.46-1.73,14.35.5,4.36-1.08,6.51-5.87,6.27-5.84-.28-11.71-.05-17.57-.07-2.38,0-4.52.56-4.56,3.33-.06,5-.78,10.1.42,15.06,1.31,5.43,14.07,9.53,16.82,5,4.09-6.79,10.21-5.58,15.67-5.67,11.51-.19,23-.55,34.45-1.48,9.81-.79,14.26,2.54,16.88,12.66l-4.68-.08c.11-3.73-2.63-2.94-4.88-3.17-3.21-.33-6.7,1-9.89-1.17,1.41-1.47,2.85-1,4.17-1.13s3,.21,3.25-1.62S517,92,515.78,91.51c-3.63-1.35-9.69,1-11.12,4.56a2.74,2.74,0,0,1-3.08,2c-2.33-.21-4,1.06-5.91,2-4.1,2.13-2.3,3,.67,3.83q-.07,7.56-.16,15.14c-4,5.2-2.09,10.76-1,16.27a42.21,42.21,0,0,1-2.72,16.57c-4.87,1-3.11,4-2,6.72.05,1.32.1,2.64-1.23,3.48-2.9,1-2.6,2.7-1.07,4.69-.11.89-.08,1.84-1,2.37-3,.29-2.19,2.67-2.43,4.46-.2.92.17,2.1-1.16,2.51-2.3.34-2.86,1.45-1.51,3.4,0,.94.33,2-1,2.37-5.9,3.28-7.07,9.44-9.22,15l-.16.12c-6.56-.35-4.07,5.31-5.58,8.31l0,0c-4,.43-4.3,3.57-4.87,6.52-.25,1.3-.22,2.81-2.18,2.78-1.76.13-2.45,1-2,2.75l-.27-.3.31.26c-2.57-.64-2.75,1.09-2.87,2.87l-.16.14c-4-.1-4.69,2.39-4.44,5.62a.48.48,0,0,1-.67.46c-2.49-.31-2.88,1.27-2.9,3.18l-.1.08a2.18,2.18,0,0,0-2.21,2.32c-.29,2.4-2.7,3.07-3.9,4.73a1.87,1.87,0,0,0-1.94,1.85c-1.37,2.61-4.55,3-6.34,5.14-1.87,0-3.37.41-2.48,2.84l-.49-.29.46.33c-1.63-.66-2.6-.1-2.93,1.6l-.11.11a2.18,2.18,0,0,0-2.15,2.43l-1.38,1.09c-1.94.75-4.88.58-3.83,4.1l-.13.1c-2.62-1.08-2.79.71-3,2.5l-5.06,5c-1.55-.06-2.92.16-3.12,2.09-.79,2.25-2.93,2.78-4.76,3.71a2.07,2.07,0,0,0-2.21,2.05.92.92,0,0,1-1,.36,2.13,2.13,0,0,0-2.43,2.4,29.64,29.64,0,0,1-7,5.72,2.14,2.14,0,0,0-2.29,2.55l-1.3.92a3.38,3.38,0,0,0-3.53,3.36l-.09.09a2.12,2.12,0,0,0-2.09,2.56l.07-.06a2.11,2.11,0,0,0-2.58,2.07l-.09.08c-2.51,0-4.45.68-4.5,3.66l-6.25,6c-2.45-.48-3.22.8-3.16,3l-3.79,3.69a2.2,2.2,0,0,0-2.1,2.27c-7.79,8.28-16.2,16-23.23,24.95A242.16,242.16,0,0,0,304.55,384a205.84,205.84,0,0,0-16.29,56.36,173.72,173.72,0,0,0-1.42,41.21c1.63,17.16,4.68,33.88,10.69,49.94a131.14,131.14,0,0,0,26.38,43.34c8.93,9.7,18.67,18.55,29.93,25.48,8.45,5.19,17,10.24,26.39,13.81,10.82,4.09,21.72,7.33,33.26,8.23,17,1.34,33.74-.13,49.5-7.08,10.32-4.55,19.24-11.08,24.75-21.32,1.21-2.24.49-4.37-1.87-4.24-6.17.34-11-3.18-16.48-4.8-14-4.13-25.34-12.34-35.24-22.53-10.56-10.86-16.59-24.49-21.63-38.51a8.56,8.56,0,0,0-5.46-5.85c-6.79-2.69-14-5.18-19.72-9.47-14.89-11.13-26.45-24.63-32.47-43.09-8.22-25.23-6.61-50.66-4.07-76.08,1.88-18.71,9.06-36.16,18.06-52.77,8.05-14.89,17.81-28.71,29.8-40.47,15.86-15.56,33.23-29.4,53.21-39.82a202.07,202.07,0,0,1,52.88-19.09c20.87-4.28,42.06-6.49,63.6-4.05,18.08,2.05,36.06,4.92,53.29,10.33,16.48,5.18,32.83,11.14,48,20.05,9,5.3,18.12,10.49,26.36,16.71,22.2,16.75,43.61,34.5,64.94,52.36,16.22,13.57,32.5,27.07,50.68,38.29,13.12,8.1,26.43,15.49,41,20.23a176.1,176.1,0,0,0,28.08,6.22c6.37.95,7.51-1.5,6.27-7.75-1.79-9.05-5.42-17.47-8.37-26.1-4.92-14.44-12-28-18.61-41.73a360.74,360.74,0,0,0-27.37-46.68c-11.82-17.31-25.27-33.35-39.52-48.75-10.73-11.59-23-21.53-34.19-32.66-1-4.69-2.26-5.68-4.64-3.64-1.67-.09-2.59-1.25-3.52-2.41-.11-1.61-1.07-2.23-2.59-2.21-2.41-.13-2.69-2.78-4.44-3.7-.25-2.85-2.21-3.38-4.59-3.34l-.06-.05a2.15,2.15,0,0,0-2.58-2.16,3.76,3.76,0,0,1-3.28-2.54c-.37-1.26-.79-2.5-1.11-3.77s-.05-2.88-2-2.87-2.58,1.31-2.81,2.95l-14.06-9.26c-1.65-4.23-4.8-6-9.26-5.56l-1.42-.49c-.15-3-.86-5.19-4.53-3.08-4-1.72-8.24-3-11.73-5.81-.74-2.79-2.57-3.55-5.22-2.73l-.2-.07c-1-4.42-5.9-6.87-10.94-5.5-2.83-.19-4.84-2-7.09-3.43-.67-1.79,2-3.9,0-5.25-1.81-1.22-2.57,1.91-4.38,2-.49,0-1,.58-1.42.89-3.58-.29-6.65-1.88-9.64-3.69.18-1.14,0-2.49.6-3.38,1.36-2.11,2.11-4,.36-6.28s-3.92-1.36-5.75-.51c-5,2.32-9.76,5.28-15.39,1.75-.06,0-.49.52-.75.8l-3.57-1c-1.32-4.86-3.94-6-8.06-2.74-1.61-.23-3.44.55-4.78-1,2.14,0,4.14-.42,3.29-3.11s-2.76-1.15-4.16-.45a13.37,13.37,0,0,0-2.52,2.15L603.11,113c-3.85-3.61-9.71-2.64-13.67-5.83s-7.39-2.25-11,.32a4.53,4.53,0,0,1-3.48-.27c-2.12-2.91-4.88-3.53-8.16-2.27l-4.72-.4c-.08-1.3-.1-2.64-1.86-2.85s-2.75.66-2.9,2.43l-2.28-.44a2.35,2.35,0,0,0-2.37-2.08c-3.05-.35-6.1-.77-9.15-1.19-1.22-.17-3.18.43-3-1.61.11-1.54,1.77-1.84,3.19-1.85,2.91,0,5.83-.21,8.72,0,4.4.33,6.73-1.18,6.15-5.87,9.72-.1,20.17,2.24,26.22-9,1.31-2.45,6.34-2.9,5.09-6.85-1.19-3.79-5.11-2.67-8.1-2.81-2.11-.11-4.13-.5-4.28-3-.25-4.23-.77-8.51.92-12.63.54-1.31,1-2.62,2.59-2.79,2-.2,2,1.36,2.27,2.69a3.27,3.27,0,0,0,3.81,2.81c5.5-.46,8.17,3.13,10.15,7.24,2.12,4.39,5.09,5.6,9.85,4.69,3.68-.7,8-1.38,9.76,3.74,1,3,3.57,3.62,6.19,2.76a12.64,12.64,0,0,0,7.75-8.1c1.05-3.07-2.73-3.53-5-4.49-1.7-.73-4.26-.89-3.6-3.62.59-2.44,2.91-2.1,4.85-2.17,2.24-.09,4.15.22,5.45,2.48,1.52,2.65,4,3.12,5.36.23,2.47-5.34,7.7-4.32,11.79-6,8.08-3.41,5.47,5.27,8.67,7.32.43.27.61,1,.85,1.51,1.47,3.24,3.74,2.87,6.21,1.33s2.66-3.6,1.14-5.94c-1-1.49-3.28-2.47-1.64-5.26,3.25,2.61,5.24,5.66,4.94,9.78-.15,2.11,2.71,4.47-.3,6.31s-4.4,5.39-6.94,7.78c-.94.89-2.3,1.82-1.47,3.42a3.25,3.25,0,0,0,4.1,1.43c3.81-1.41,6,.07,8.39,3,2.73,3.39,5.19,3.42,7.89-1.07,2.6-4.3,6.25-10.15,10.32-11,8.58-1.73,9-6.63,8.79-13.1,0-.44.61-.9,1-1.38,2.09.84,2,2.66,2.34,4.31.39,2,1.59,3.19,3.71,2.69,2.55-.61,5.43-2.52,5,2.69-.1,1.33,1.84,1.15,2.77.36a49.1,49.1,0,0,0,3.61-3.74c.9,0,1.88-.17,2.46.81.13,1.4.11,3,2.23,1.51l2.36,1.09c1.48,3.15,4.09,6.24-.75,9.11-1,.62-.47,3,.95,4.06s2.91,2.19,4.78,1.54,1.91-2.07,1.3-3.78c-.44-1.2-1-2.87.75-3.45,1.39-.45,2.69.54,3.38,1.73a16.59,16.59,0,0,1,2.36,5.23c.87,5.14,5.23,3.85,8.28,4.51,3.75.8,2.32-3.08,3.48-4.68l1.24.46c2.51,2.8,4,7.27,9.31,5.3.42.3.84.6,1.25.91.83,3,1.56,6.17,5.84,3.56,1.28,0,2.4.2,2.55,1.78-1.89,4.33-4.85,4.51-8.43,2.12-1.77-1.18-3.35-2.89-5.29-3.51s-4.41-3.33-6-.16c-1.3,2.54.09,5.16,2.69,6.27a65.57,65.57,0,0,0,20.64,4.65c3.91.3,7.52-.72,10.28,3,.69.93,1.72.59,2.4-.37a6.46,6.46,0,0,1,4.66,3.33c.39,5.25,4.71,5.14,8.3,6a31.47,31.47,0,0,1,12.46,10.52c-1,2.63-1.83,5.45.91,7.4,5.53,4,10.34,9.5,18.15,8.91h0c-.2,6.81,5.61,6.49,9.76,8.13l.82.77c-.41,3.54,1.68,4.74,4.75,5l0,0c1.15,3.09.34,8,6.25,6.67l-.28.33.24-.36c-.37,1.34-.78,3.19.3,3.84,3.79,2.3,3.36,8.14,8.74,9.39,2.08.48,5.37,2.75,5.51,5.43.27,5.23,3.45,5.27,7.15,5.15l.09.08c0,1.69.16,3.32,2.49,3.3l0,0c-.28,3.35-.42,6.6,4.57,5.92,4.42,5.53,9,10.9,13.21,16.6,6.83,9.33,13.93,18.54,19.89,28.4,8,13.18,15.79,26.5,22.53,40.39s13.85,27.61,18.36,42.44c.14,1.87-1,4.27,2,5a3.74,3.74,0,0,1,1.19,3.55c.38,6,.81,12,5.67,16.43v1.13c.46,5.9,1.35,11.64,5.72,16.17.1.8.21,1.59.31,2.39-1.86,3.19-.95,5.45,2.33,6.93,1,.62.45,1.48.37,2.27-2,1.74-1.67,2.92.88,3.55,1.14.65.24,1.52.25,2.29-2,1.59-.89,3.39-.52,5.27,1.82,9.39,5.75,18.38,5.18,28.23-.12,2.11.51,4.28,3.09,5,.7,1.07,1.16,2.17.5,3.43-1.82,2.65-2.77,5.17,1,7,.6,1.16,1.44,2.26.72,3.68.16,3.07-4.74,6.76,1.11,9.15q.31,6.39.61,12.78c-1.63,2.59-1.75,5,.74,7.19l.08,3.14c-3.21,4.28-.79,8,1.14,11.83.08.79.15,1.57.23,2.36C987.45,488.92,985.25,493.07,989.76,496.51ZM207.06,226.18l-.05,0c-2,.07-2.35,1.36-2.29,3-7.39,8.46-15.25,16.58-22.08,25.47a417.6,417.6,0,0,0-25,36.47c-9.35,15.32-18.24,30.82-25.55,47.25a411.43,411.43,0,0,0-30,100.39c-3,18.06-3.25,36.37-5.43,54.49-1.08,9,.14,12.31,10.85,11.23a87.37,87.37,0,0,1,16.65.05,148.23,148.23,0,0,1,66.35,21.71c16.36,10.06,30.67,22.38,44.25,35.48C248.05,574.6,260,588.9,272.23,602.9c14.26,16.35,28.09,33,44.11,47.83C331,664.28,346.4,676.88,363.7,686.8A200.92,200.92,0,0,0,410,705.69a211.44,211.44,0,0,0,49.67,7.52,197.64,197.64,0,0,0,44.7-3.13,147.5,147.5,0,0,0,50.77-19.77c26.41-16.5,46-38.68,57.93-67.83a121.43,121.43,0,0,0,9.08-56.68c-1.55-20-8.94-37-24.75-49.91-4.65-3.8-6.9-3.11-8.48,2.74-2.13,7.91-4.54,15.71-8.31,23-11,21.23-27.55,35.9-50.53,43.56-5.64,1.88-12.62,2.81-14.72,10.43-5.09,18.53-17.43,31.72-33.15,41.71-18.59,11.82-39.85,15.38-61.35,15.41-16,0-31.89-2.8-47.66-5.88-16.53-3.22-31.33-10.89-45.51-19-15.94-9.15-29.78-21.63-42.28-35.2a186.93,186.93,0,0,1-22.62-29.34,240.12,240.12,0,0,1-24.25-53.46,192.49,192.49,0,0,1-8.44-60.27c.33-20.68,2.84-41.52,8.95-61.63,5.83-19.21,12.78-38,22.75-55.46a322.57,322.57,0,0,1,39.77-55.05c9.48-10.6,17.65-22.38,27.74-32.53a2.09,2.09,0,0,0,2-2.19l.07-.09c2.1-.16,2.25-1.67,2.3-3.26l1.2-1.42c5.49.38,7-2.8,6.74-7.5l3.86-5.3c3.21-.63,4.63-2.64,4.53-5.82,1.53-3.18,3.93-5.69,6.33-8.2,2.19-.18,4.65-.14,3-3.53,1.21-1.93,2.43-3.85,3.65-5.78,2.82.21,3.74-1.23,3.34-3.81a.65.65,0,0,1,.52-.86c4,0,4.63-2.31,3.91-5.57l.16-.27c4.1-.26,3.78-3.16,3.61-6l0,.06c5-.62,3.95-4.9,4.88-8l0,0c2.7-1.56,8.13-1.72,3.61-7,0-1,0-1.93,1.12-2.35,3.64-.89,4.38-2.84,2.18-5.87.16-2.18.42-4.32,2.32-5.81,5-2.67,4.26-7.17,3.73-11.61a42.18,42.18,0,0,1,2.35-10.52c1.64-.33,3.71-.51,3.95-2.42s-1.7-2.1-3.19-2.32a6,6,0,0,1-.33-1.68c1.17-11.69,1.17-11.69-9.95-11.06-2.7-1.17-4.72-.6-5.86,2.23l-4.73,1.13c-2.65-1.7-4.44-1.67-4.37,2.13l-2.27.34c-4.44-5.29-5.12-.95-6.18,2.4-1.43,1-3.11.89-4.74,1-3.58-.66-6.55,1.67-9.91,2.12-.32,0-.41,1.71-.61,2.62-1.4,1.11-3.08,1-4.71,1.08-1.44-1.34-3.76-3.22-4.89-1.56a10.42,10.42,0,0,1-6.05,4.67c-.61.18,0,1.33.72,1.77-.62,1.09-1.72.8-2.68.92-2.94-2-4.54-1.33-4.65,2.31-1.22.72-1.74,2.5-3.56,2.3-3.21.31-7.72-2-8.14,3.94-1.57,1.78-3.3,3.26-5.88,3.18-2.53-1.76-5.39-2-7.62-.08-1.36,1.13.18,2.64,1.49,3.51-.67,2.08-2.37,2.43-4.24,2.48-4.4.48-9.27.2-10.2,6.27.11.15-.64-.78,0,0-1.39-.26-3.11-.9-2,1.71-.35,1-1.22,1-2.08,1.09-3-1.89-4.59-1.17-4.64,2.45a29.56,29.56,0,0,1-9.42,6.88c-2.84-1.38-2,.82-2.05,2.1-4.29,2.4-7.28,6.62-12,8.43-2.65-.29-6.08-1.61-4.69,3.48-1.87,2.57-4.48,4.25-7.1,5.92-5.26.85-8.52,4-10.3,8.87-2.63,1.86-4.24,4.88-7.28,6.28a2.14,2.14,0,0,0-2.28,2.16L221,212.22a2.19,2.19,0,0,0-2.24,2.19,43.59,43.59,0,0,1-9.6,9.43A2.19,2.19,0,0,0,207.06,226.18Zm-79.65,572c.39,2.61,1.9,2.47,3.92,1.83-.88-2.18-2.53-1.69-3.92-1.83-.22-2.16-2.36-5.52,2.74-4.38,1.06.24,2.41,1.16,2.81-.62s-.49-3.57-1.91-3.84c-3.37-.63-5.42,2.19-6.76,4.45S123.94,798.44,127.41,798.22ZM292.61,94.48c-.06-2.61.62-5.66-2.4-6.11-4-.6-7.51-3.39-11.61-2.57-1.8.36-1.27,2.62-1.16,4.06.23,3,.74,6.07,1.11,9.1.39,3.21-1.23,7.45,3.83,8.37,4.73.86,6.95-2.15,8.67-6C292.11,99,292.89,96.7,292.61,94.48ZM708.93,92.3v0c-4.29,0-8.58,0-12.87,0-1.51,0-3.35-.3-3.7,1.87-.43,2.59,1.66,2.5,3.33,3,9.5,2.8,18.9-1.18,28.38-.4,1.37.12,2-1.08,1.86-2.41-.16-1.81-1.53-2-3-2C718.29,92.29,713.61,92.3,708.93,92.3Zm-84.45,0c-.77,0-1.54,0-2.32,0-4.17-.09-6.58,1.4-6.2,6.09.4,4.93,3.66,5.1,7.35,4.85,1.14-.07,2.43-.54,3.39-.17,4.92,1.93,5.53-.72,5.76-4.68C632.84,92.13,628.74,92.23,624.48,92.28ZM162.68,809.63a9.1,9.1,0,0,1,2.64.81c1.36,1,2.59,2.57,4.46,1.2a2.19,2.19,0,0,0,.19-2.15c-1.22-1.41-2.6-3.28-4.71-2.57-2.52.85-4.41-.66-6.49-.88-5-.52-6.91-6-11.8-6.25-1.77-.11-3.73-.92-4.14,1.57-.31,1.95-1,4.41,2.24,5C151.1,807.45,155.82,815.18,162.68,809.63ZM369.94,101.11l.21,0a42,42,0,0,0-.82-6.28c-1.08-3.92-4.34-4.57-7.44-3.32s-2.15,4-.89,6.41c1.06,2,1.75,4.29,2.68,6.42.86,2,.6,5.44,3.69,5,2.65-.43,2.51-3.5,2.57-5.83C370,102.66,369.94,101.89,369.94,101.11Zm469.6,671.15c-.47-1.12,1.79-5.23-2.9-4.79-4,.39-6.71,6.67-4.1,9.62,2.35,2.67,2.77,3.87-.87,5.13a2,2,0,0,0-.92,2.93c1.19,2.19,3.76,1.5,5.65,2.29,1,.42,2.35-.65,1.91-1.44C835.68,781.33,840.74,777.67,839.54,772.26ZM174.07,815.37c7.3,2.07,6.4-4.9,9.05-7.78.89-1,2-2.05.87-3.51s-2.4-.79-3.63-.13c-3.11,1.68-5.85,2-7.75-1.77-.27-.54-1.17-.86-1.84-1-.2,0-.94,1-.9,1.09,2,2.08,1.07,6.72,3.59,7.17C181.08,810.77,175.43,813.15,174.07,815.37Zm50.87-.38c-2.62-3.18-2.65-3.22,1.13-5.37,1.54-.89,2.3-2.11,1.9-3.79-.49-2.11-2.19-1.82-3.73-1.47-3.47.8-5.12.86-5.39,6.5C218.45,819,222.43,814.68,224.94,815ZM604.07,106.24c1.79,0,3.6,0,4.51-1.88a2.39,2.39,0,0,0-.41-2.7c-1.52-1.74-2.62-.14-4,.36-2.82,1-3.78-1.17-4.4-3.22-.44-1.44-.24-3.06-.61-4.54-.14-.57-1-1.09-1.64-1.35-.24-.1-1,.48-1.21.91C594.12,98,599.28,106.19,604.07,106.24ZM205.5,802.09c-.77,4.5-.78,4.54,2.61,4.8,1.75.14,2.17,1.29,2.44,2.7a37.83,37.83,0,0,0,1,4.45c.35,1.09,1,2.34,2.35,2.2,1.54-.17,1.33-1.68,1.31-2.78-.07-4,1.6-9-5.61-8.54C208.49,805,207.22,803.32,205.5,802.09ZM711.77,79.92c-2.31-2.16-4.81-4.69-7.54-7-.71-.58-1.81.33-2.25,1.26-1.05,2.22-.16,4.29,1.2,5.85,1.57,1.78,3.37,3.87,6.14,3.4C710.55,83.28,711.55,82.06,711.77,79.92Zm181,666.2c-2,1.23-2.8,3.38-5.69,2.56-2.33-.65-3.91,1.71-3.8,4,.18,3.52,2.05,1.51,3.48.78s1.94.52,2.78,1.28c2.89,2.65,4.1,1.29,4.09-2C893.63,750.75,894.21,748.6,892.78,746.12Zm-48.13-9.61c-2.39,1.19-3.54,1.43-4.11,2.59-.2.39,0,1.42.13,1.46,3.52.84,4,4.32,6,6.54,1.14,1.29,2.74,1.24,4.25.57.94-.42,1.84-1.49,1.27-2.24C849.8,742.35,847.18,739.47,844.65,736.51Zm-680.32,2.27c1.07-2.48-.29-4-2.44-4-2.7,0-1.46,2.6-1.62,4.08-.27,2.37.74,4.55,1.77,6.58.79,1.58,2.52,1.8,4.06,1.24a3.53,3.53,0,0,0,2-1.88c.57-1.77-.73-2.28-2.22-2.54C163.64,741.86,163.69,740.43,164.33,738.78ZM579.12,788c-3.22.7-5.86,1.24-8.47,1.88-.87.21-2.09.22-2.16,1.52-.06,1.12.88,1.6,1.69,2.12C574.66,796.41,577.84,794.65,579.12,788Zm27.22-23c-1,3.32-1.83,7.47,1.74,8.13,2.85.53,7.28.59,9.72-3C612.65,771.07,608.88,769.79,606.34,765Zm-450-46.28c-.41-.86-1.28-2.41-1.53-2-2.58,4.43-7.84,2.68-11.21,5.06a2.21,2.21,0,0,0-.58,3.09c.68,1.17,1.62.54,2.45,0a20.14,20.14,0,0,1,7.06-2.46A4.26,4.26,0,0,0,156.38,718.69ZM900,726.41c-2,2.26-3.73,4.11-6.36,1.15a1.83,1.83,0,0,0-2.6.3c-.56.72.25,1.29.54,1.95,1.06,2.37,2.62,3.67,5.35,3.13C900.83,732.18,899.31,729,900,726.41ZM577.73,780.58c2.55-.13,3.3-2.05,3.76-3.84s-.33-3.65-2.33-3.88c-2.42-.27-3.17,1.95-3.65,3.74S576,779.87,577.73,780.58ZM205.79,784c-1.83,4.08.15,6.14,1.68,8.29.74,1,1.24,2.54,3,2.24a2.21,2.21,0,0,0,2-1.8,2.81,2.81,0,0,0-2.13-3.09C207.6,789.07,207.26,786.66,205.79,784Zm397.13-28.61c-.45-1.65-1.4-3.16-3.37-3.28a2.78,2.78,0,0,0-2.85,2.46c-.2,2.57,2.47,1.85,3.83,2.57C601.65,757.7,602.81,757.11,602.92,755.36ZM216.85,119.27a3.83,3.83,0,0,0-3.44,3.24c-.19,1.34,1,2,2.2,2.22,1.82.3,3.09-.28,3.13-2.35C218.76,121,218.89,119.58,216.85,119.27ZM197.43,802.62c-.5-2.54,1.85-5.53-1.21-7.3-.47-.28-2.36.76-2.72,1.58C191.8,800.77,196.46,800.38,197.43,802.62ZM704.29,107.28c1.34,0,1.88-1.11,1.87-2.63s-.22-2.75-2-2.89c-2.09-.16-2.59,1.16-2.56,2.91C701.61,106.2,702.13,107.27,704.29,107.28ZM915.74,651.94a2.86,2.86,0,0,0-3-2.73c-1.23-.07-2.4.28-2.39,1.72,0,1.8,1.25,2.62,3,2.73C914.53,653.74,915.54,653.4,915.74,651.94ZM133.13,806c2,1.73,2.42,4.34,5,2.93.94-.51,2.27-1.62,1.49-2.64C138.1,804.28,136,805.26,133.13,806Zm731.5-9.5c-1.91-2.39-.43-5.33-3.07-6.91a1.7,1.7,0,0,0-1.4.42c-.17,2.54.32,4.9,2.51,6.57C862.79,796.62,863.05,796.53,864.63,796.45Zm-730.82,6.74c3.26-3,3.26-3,1.56-6.74A5.49,5.49,0,0,0,133.81,803.19ZM320.65,133.51c0-1.21-.09-2.47-1.61-2.53-1.69-.07-2.18,1.43-2.54,2.66a1.83,1.83,0,0,0,1.7,2.44C319.86,136.22,320.42,134.92,320.65,133.51Zm488.58,658.6c-2.47-1-4.28-1.67-5.5.63-.46.88-.32,2.25.59,2.56C807.14,796.24,807.48,793.6,809.23,792.11Zm133.4-134.5a2.65,2.65,0,0,0-1.85,2.28,1.67,1.67,0,0,0,1.7,1.91c1.23.12,2.44-.12,2.52-1.66C945.06,658.85,944.36,658,942.63,657.61ZM317.42,87c.08,1.28.61,2.33,2,2.46s2.09-.86,2.27-2.12A1.63,1.63,0,0,0,320,85.43C318.78,85.28,317.67,85.51,317.42,87Zm275.91-2.25c1.25-.08,1.52-.94,1.52-2,0-1.32.2-2.88-1.66-3.08-1.09-.12-1.63.77-1.69,1.85A2.85,2.85,0,0,0,593.33,84.79ZM199.69,813.85c.29-1.87-.32-2.59-1.41-2.56-1.66,0-2.09,1.48-2.44,2.72a1.16,1.16,0,0,0,1.25,1.47A2.46,2.46,0,0,0,199.69,813.85Zm693.77-78c-4.75.9-4.75.9-3,4.88ZM882,710.15c-.19-1,.16-2.54-1.64-2.26-1.16.18-2.31,1.15-2.09,2.23a3.56,3.56,0,0,0,2.21,2.27C882.22,712.81,881.74,711.12,882,710.15ZM155.49,723.84c-2.94.76-4.51,1.61-4,4,.08.43.83,1.1,1.18,1C155.28,728.52,154.51,726.22,155.49,723.84Zm11.72,90.44c-1.39,2.86-1.58,4.7.28,7.44C168.54,819,168.82,817.15,167.21,814.28ZM132,775.3c0-1.61-.53-2.45-1.63-2.42-1.5,0-1.75,1.26-1.62,2.46.12,1,.7,1.78,1.89,1.58A1.56,1.56,0,0,0,132,775.3Zm84.31,22.39c-.2-1.08-.76-1.77-1.95-1.51-1.46.32-1.34,1.71-1.67,2.74s.16,1.54,1.12,1.44A2.67,2.67,0,0,0,216.28,797.69Zm688.39-75.64c-.27,1.78-2.29,3.22-.33,4.79.7.56,2.25.54,2.62-.36C907.79,724.46,905.82,723.55,904.67,722.05Zm-745.1,9.63c-1.72-.07-3.64-1.73-4.95.45a1.07,1.07,0,0,0,.15,1C156.78,734.38,158.17,733,159.57,731.68Zm35.73,37.13c-.16-.84-.32-1.92-1.67-1.51-1.11.34-2.25,1.15-2,2.35.12.59,1.46,1.25,2.29,1.31C195.11,771,195.3,769.93,195.3,768.81Zm393.26,14.92a1.86,1.86,0,0,0-2.15-1.37c-.93.21-1.75.85-1.44,2,.24.87,1,1,1.82.95C587.8,785.29,588.65,785,588.56,783.73ZM873.1,768.61a1.84,1.84,0,0,0,1.38-2.14,1.59,1.59,0,0,0-2-1.42c-.87.23-1,1-1,1.8C871.54,767.86,871.8,768.7,873.1,768.61ZM204.45,131a1.39,1.39,0,0,0-1.6-1.21,1.35,1.35,0,0,0-1.37,1.48,1.41,1.41,0,0,0,1.91,1.42A1.36,1.36,0,0,0,204.45,131ZM904,641.32a1.39,1.39,0,0,0-1.56-1.27,1.35,1.35,0,0,0-1.42,1.43,1.42,1.42,0,0,0,1.85,1.5C903.71,642.81,904,642.15,904,641.32ZM117.44,786.62l-1.13-1.46a8.6,8.6,0,0,0-1.34,2.38c-.17.94.74,1.24,1.56,1.13S117.8,787.94,117.44,786.62Zm31.32-50.77a4.67,4.67,0,0,0-.93,1.61c-.14,1,.75,1.16,1.53,1.1s1.25-.76,1.25-1.57S150,735.75,148.76,735.85Zm780.07-28c1-.13,1.07-.92,1.06-1.66s0-1.63-1-1.64-1.06.89-1.06,1.63S927.83,707.75,928.83,707.9Zm-16.38,43.52c-.24-.37-.5-1.27-1-1.44-1.05-.34-1.25.71-1.2,1.4s.39,1.63.85,1.79C912.13,753.53,912.14,752.47,912.45,751.42ZM569.8,768.15c-.81.06-1.5.33-1.59,1.24s.08,1.68,1.08,1.52a2.52,2.52,0,0,0,1.6-1.28C571.22,768.88,570.76,768.22,569.8,768.15Zm-396.74-10.6c-.75.06-1.64.07-1.64,1.07s.89,1,1.64,1,1.64,0,1.64-1S173.81,757.62,173.06,757.55ZM853.31,174.09a4.45,4.45,0,0,0-1.62-.91c-1-.14-1.17.74-1.1,1.51s.77,1.23,1.58,1.23S853.42,175.31,853.31,174.09Zm-664,596.48a1.38,1.38,0,0,0-1.56-1.23c-.94,0-1.43.67-1.12,1.43a2.46,2.46,0,0,0,1.57,1.28C189.13,772.23,189.24,771.34,189.26,770.57Zm636.28,10.87c-.06-.84-.49-1.59-1.33-1.37a2.44,2.44,0,0,0-1.49,1.47c-.23.83.51,1.36,1.35,1.32A1.53,1.53,0,0,0,825.54,781.44ZM643.36,765.6c-.4.44-1,.8-1,1.14a1.38,1.38,0,0,0,1,.93c.72.11,1.53-.17,1.28-1.13C644.56,766.18,643.89,766,643.36,765.6Zm212.2,6.57a4.22,4.22,0,0,0-1.36-.48c-.61,0-1.23.43-.92,1.1a1.85,1.85,0,0,0,1.36.7C855.24,773.52,855.73,773.13,855.56,772.17Zm27,2.93c-.32.19-1,.36-1.16.76-.32.67.29,1.13.89,1.12a1.82,1.82,0,0,0,1.37-.67C884,775.65,883.39,775.31,882.56,775.1Zm-317.29,12c1,.07,1.37-.4,1.27-1-.07-.46-.53-.87-.81-1.3-.36.36-1,.68-1,1.08S565.1,786.8,565.27,787.14Zm280.28-68c-.4.77-.86,1.26-.8,1.67s.64.73,1,1.09c.29-.43.8-.85.81-1.28S846,719.85,845.55,719.18ZM601.51,793a4.17,4.17,0,0,0-.48,1.35c0,.6.43,1.23,1.1.91a1.75,1.75,0,0,0,.7-1.34C602.87,793.34,602.48,792.85,601.51,793ZM79,731.89l1-1.34c-.43-.28-.87-.81-1.28-.79s-.73.64-1.09,1Zm600.87,5c.2-1-.29-1.36-.89-1.34a1.78,1.78,0,0,0-1.37.67c-.33.66.27,1.11.88,1.12A4.48,4.48,0,0,0,679.83,736.93ZM210.38,820.37c-.6-.43-1-.9-1.37-.92s-1.2.3-1.29.62c-.26.91.48,1.28,1.24,1.21C209.37,821.24,209.75,820.79,210.38,820.37ZM587.69,65.49c-.71-.45-1.16-1-1.57-.93s-.79.59-1.19.92c.4.33.77.89,1.19.93S587,65.93,587.69,65.49ZM385,112c-.78-.4-1.27-.86-1.68-.8s-.73.64-1.09,1c.42.29.85.79,1.28.8S384.32,112.47,385,112ZM585,87.53l-1.19,1.25c.4.33.79.92,1.18.92s.79-.59,1.19-.92Zm-414.79,710c.2-1-.3-1.35-.9-1.33a1.78,1.78,0,0,0-1.37.66c-.33.66.28,1.12.89,1.12A4.08,4.08,0,0,0,170.16,797.5ZM974,585.38c0-1-.48-1.18-1.08-1a1.47,1.47,0,0,0-.9.63c-.38.73.15,1.09.75,1A3.39,3.39,0,0,0,974,585.38Zm-60.88,89-1-.41c-.14.32-.45.7-.36.93s.59.3.9.43C912.82,675.06,913,674.74,913.09,674.42Zm64.49-93.19c-.32-.13-.71-.45-.93-.36s-.3.58-.44.9c.31.14.7.45.93.36S977.44,581.55,977.58,581.23ZM118.74,749c-.31-.14-.7-.45-.93-.36s-.3.58-.44.9c.32.13.71.45.93.36S118.6,749.3,118.74,749Zm814.34-50.07c-.32-.13-.71-.44-.94-.35s-.29.58-.43.89c.32.14.7.45.93.36S932.94,699.23,933.08,698.91Zm-348,95c-.13-.33-.18-.82-.4-.92s-.63.2-.95.33c.13.32.17.81.4.91S584.75,794,585.08,793.88Zm-424-39.47c-.13.32-.45.7-.36.93s.58.3.9.44c.14-.32.46-.7.37-.93S161.39,754.55,161.07,754.41Zm720.39-53.19-1-.41c-.14.31-.45.7-.36.93s.58.29.9.43C881.18,701.85,881.32,701.54,881.46,701.22ZM141,703.55l-1-.41c-.14.31-.45.7-.36.93s.58.29.9.43ZM682.46,723c-.13.32-.27.63-.41,1,.32.14.71.45.94.36s.29-.58.43-.9Zm169.33,78.27c.14-.31.45-.7.36-.93s-.59-.29-.9-.43c-.14.32-.45.71-.36.93S851.47,801.14,851.79,801.27ZM639,86.77c-.12-.32-.17-.82-.4-.91s-.62.2-.94.32c.12.32.17.81.4.91S638.65,86.9,639,86.77ZM889.28,765.16c.14-.31.45-.7.36-.93s-.58-.29-.9-.43c-.14.32-.45.7-.36.93S889,765,889.28,765.16Zm-61.67,1.3c-.32-.14-.71-.46-.94-.37s-.3.58-.44.9c.32.14.71.46.93.37S827.47,766.77,827.61,766.46ZM264,170c-.32-.14-.7-.46-.93-.37s-.3.59-.44.9c.32.14.7.46.93.37S263.89,170.34,264,170ZM178.25,844c.32.14.71.45.94.37s.3-.59.44-.9c-.32-.14-.71-.46-.94-.37S178.39,843.64,178.25,844Zm715-73.38c-.13-.32-.18-.82-.4-.92s-.63.2-1,.33c.12.32.17.81.4.91S892.9,770.7,893.23,770.58ZM149,746.11c.32.14.71.45.94.36s.29-.58.43-.9c-.31-.13-.7-.45-.93-.36S149.1,745.79,149,746.11ZM364.94,206l.48.17c.05-.14.17-.36.13-.4a1.58,1.58,0,0,0-.46-.18ZM131.12,736.79a1.37,1.37,0,0,0-.47.15c-.05,0,.06.27.1.41a1.37,1.37,0,0,0,.47-.16C131.27,737.15,131.16,736.93,131.12,736.79Zm44.82,54.87.24-.74-.42.12ZM197,809.14c.11-.33.17-.54.24-.75l-.43.12Z" transform="translate(-10.24 -14.23)"/><path class="cls-1" d="M133.93,820.91c3.19-.51,5.35-1.7,5.35-5.55,0-3.31,2.24-4.54,5.56-4.38,2.75.14,4.81-.2,4.1,4-.47,2.73,3.29,2.11,5.07,2.62,6.63,1.9,7.41,3.71,3.05,8.83-1.07,1.27-1.85,2.54-1.18,4.2s2.29,1.54,3.52,1.3c4.56-.87,6.21,1.92,6.26,5.45.12,7.57,7.54,8.41,11.35,12.49,1.38,1.47,4.84-.31,6.61-2.25,1.58-1.75,3-3.92,2.09-6.33-.83-2.21-2.22-4.32-5.25-2.16-2,1.46-4.7,1.44-6.92,2.84s-4-.21-4.76-2.56c-.57-1.82-.55-3.51,2-3.87,2.18-.3,5.55,0,5-3.1-.58-3.52-3.87-2-6.26-1.72-.51,0-1.07-.33-2-.64a46.57,46.57,0,0,1,4-6.27,3.42,3.42,0,0,1,5.24-.1c3,3.28,6.77,2.34,10.38,2.44,2.35.07,5,.47,3.76-3.54-.59-2,1.37-2.58,2.81-3.09,2.45-.86,5.8,0,6.41,1.49,2.53,6.42,9.31,5.37,13.79,8,3.89,2.24,6.45,3.4,4.94,8.29,1.06-.08,1.85.09,2.07-.19,2-2.6,8-.09,7.61-4.67-.29-3.33-4.8-.55-7-2s-3.18-4.47-6.4-4.67c-.85-.06-.76-1.42-.17-1.9,1.59-1.29,1.92-4.1,4.48-4.07a16.37,16.37,0,0,1,3.36,0c5,1.33,7-.35,6.54-5.4a2.9,2.9,0,0,1,1.26-3c1.28-.83,5.79.73,3.24-3-2.17-3.17-3.69-8.26-9.44-7.05-1.61.35-3.36,2.56-4.71.91-1.5-1.83.69-3.51,1.75-5,2.21-3-3.1-5-.95-8,8.06,7.7,16.06,15.44,24.9,22.29,21.62,16.73,43.79,32.48,68.39,44.86,19.22,9.67,38.7,18.65,59.08,25.45A351.36,351.36,0,0,0,429.84,896c13.19,2.06,26.38,4.4,39.76,4.92,9.49.37,19,.08,28.49.63,4.79.28,5.64-1.33,5.83-5.78.92-22.25,1.08-44.49,11-65.52a196.44,196.44,0,0,1,23.84-38.85c-.35,1.88-.82,3.76-1,5.66-.27,2.6-1,5.8,3.58,2.93,2.17-1.36,3.64,0,4.37,2.16,1.53,4.65,4.24,4.23,8.2,2.62,6.32-2.57,12.54-5.6,19.46-6.51,6.06-.79,7.48.38,7,6,9.1-2.47,11.54-5.87,12.24-17.05a13.38,13.38,0,0,1,1.13-5.52c2-4-.38-7.47-5-8-1.77-.2-3.84-.09-3.84-2.51,0-1.61,1.55-2,3-2.12,5.06-.4,11.22,6,10.49,10.88-.14.91-.29,2.11-.91,2.62-5.2,4.32-2.52,9,.25,12.59s1.69,5-1.85,5.14c-3.15.08-4.74,2-7,3.39-4.27,2.65-4,5.17-.69,8.22a41.67,41.67,0,0,1,2.79,3.47c-4-1.1-7.91,1.88-8.13-4.1-.05-1.38-1.65-1.4-2.82-1.45-2.62-.13-5,.24-7-2.64-2-2.72-4.42.79-6.67,1.4-2.63.72-7.21.24-7,3.62.3,3.86,4.78,1.62,7.36,2.3,1.5.4,3.36.44,4.39,1.37,2.43,2.2,3.83,5.14,7.32.5,1.57-2.09,3.3,1,3.57,3.28.17,1.44-.53,3.51,1.66,3.79,1.92.24,1.33-2.07,2.14-2.87,3.8-3.78,3.21,3,6.23,2.37.74-3.43.55-7.35,2.55-10.71a2.21,2.21,0,0,0-.37-2.14c-5-4.09-2-4.51,2.09-5.39,1.8-.39,5.16,1,5.14-.86,0-4.31,4.89-6.85,3.49-11.3-.36-1.12-1-2.36.22-3.16,1.44-1,2.53,0,3.46,1.14,3.09,3.71,6.31,1,8.72-.51a6.36,6.36,0,0,0,2.52-8.12c-.73-1.61-1.78-3-1.43-4.86.5-2.65,2.59-3.24,4.83-3.18s2.18,1.91,2,3.46c-.29,3-4.45,5.71-.68,8.87,3.42,2.87,7.93.83,11.76,2.17,1,.33,2.34-.6,3.37-.34,2.18.55,4.35.83,3.79-2.18-.38-2-.23-5.76-4.41-4.42-3.06,1-5.7,0-8.83-1.63,3.34-3,5-7.84,10.73-6.84.65,2.31-4.13,2.42-1.85,4,3.35,2.38,6.19,6.48,11.31,5.4-8.87,12.22-18.18,24.08-25.8,37.23-7,12.12-13.13,24.52-16.6,38-2.13,8.29-4.77,16.63-3.42,25.49.68,4.53,2.61,5.3,6.67,3.58,10.37-4.41,21.3-7.38,31.93-11.06a312.86,312.86,0,0,0,50.58-23c14.95-8.36,29.75-17.23,43.55-27.78,16-12.21,31.19-25.18,46-38.63-.1,2.6,1.11,3.43,3.76,4,8.58,1.68,9.59,3.07,10.41,11.89.19,2-.45,4.75,3.22,3.79,1.35-.35,2.36-.23,2.51,1.36a2.43,2.43,0,0,1-1.75,2.64c-2.83,1.3-5.43,1.47-7-1.62-2-3.89-8-5.75-5.54-12,.76-1.92-2.13-3-4.23-2.44s-2.71,2-1.22,3.93c1.83,2.35,0,3.65-1.67,4.59-1.89,1-4.25.88-5-1.32-1.39-4.27-3.31-1.19-4.53-.35-2.73,1.89-.79,6.22-3.92,8.24-.44.29.47,1.91,1.58,1.93,2.44.06,5.22,1.26,7.15-1,1.06-1.21,1.72-2.8,3.59-2.05,2.36,1,0,2.71.45,4,1.35,4.23.16,7.56-2.39,11.22-1.41,2-.18,5.91,1.39,8.08,1.43,2,3.73.56,4.26-1.69,1-4,3-4.6,6.82-3.43,3.58,1.11,5.55-.64,5.09-4.6a25.13,25.13,0,0,1,0-4.07c.07-1.49-.31-3.31,1.83-3.74s2.53,1,3,2.68c1,3.92,4,3.65,7,2.94,2.07-.5,4,3.71,5.36.82,1.55-3.21-1.91-3.59-4.13-4.82s-1.9-3.58.2-5.18c2.34-1.78,3.79-3.26-.41-4.48-1.9-.56-1.13-2.28-.86-3.43.31-1.32,1.27-1.09,2.18-.32,1.54,1.29,2.57.44,3.1-1,.49-1.32-.22-2.19-1.62-2.49-.91-.19-2.28-.15-2.15-1.42.17-1.64.46-4.52,2.23-4.11,4.53,1,7.84-9,11.54-2.19,2.91,5.36,8.38,2.3,11.36,5.94.86,1.07,2.4-1.87,3.14-3.37s.88-3.81,3.46-2.52c2,1,.38,2.53.47,3.82.34,5.16,1,9.45-6.83,6.67-1.56-.55-1.79,3.36-.75,4.78,1.82,2.47,1.32,4.08-.67,6a3.78,3.78,0,0,0-.51,4.85,7.42,7.42,0,0,1,.75,6.61c-.43,1.2,1.95,3.24-.74,3.67-1.93.3-1.61-1.74-1.81-3-.67-4-6.23-1.6-7.29-5.37-.06-.2-2.44,2.34-1.67,2.67,3.37,1.43,1.48,4.33,2.14,6.39.81,2.55.27,5.19,4.45,2.83,2.82-1.6,4.18,1.14,4.67,3.5s1.76,3.66,3.93,3.28,2.36-2.66,1.94-4.28c-1.53-5.82,3.48-7.29,7.42-10.58-5.22-.49-7.91-2.6-7.89-7.49,0-1.79-1-3.6,1.76-3.8,1.84-.13,4.39-.69,4.51,2.2.15,3.9,2.71,3.51,5.29,3.53s5.07-2.16,7.62.55c.74.79,3-.28,3-1.72.12-2-1.62-3.17-3.42-3.32-3.11-.24-6.21-.11-8.83-2.27-.69-.57-2.07-.56-1.82-1.82a2.15,2.15,0,0,1,2.63-1.75c2.93,1,6.24.1,8.92,3.08,1.82,2,4.75,5.19,8.48,2.95,2.39-1.43,5.84-2.42,1.32-6.37s.46-8.52,1.79-12.36c.92-2.67.29-7.07,5-8.38,1.42-.39-.47-3.1-1.94-4-1.28-.76-3-.86-4.34-1.5a2,2,0,0,1-1-2.48,2.73,2.73,0,0,1,1.08-1.09c2.71,2.06,7.39.08,8.93,2.88,1.82,3.3,7.58,6.86,1.07,11.69-1.72,1.28-2.25,4-5.34,4a2.25,2.25,0,0,0-2.22,2.83c.51,2.12,2.45,1.78,3.84,1.35,2.75-.85,4.21-3.43,5.85-5.46,2.21-2.73,4.31-4.64,8.34-2.63-.58-4-1.43-7.39-.14-11,2.55,1.09,5.39,6.17,7-.56.36-1.6,2.72-.92,4.24-1-6.9,11.65-15.79,21.85-24.4,32.2C869,819.64,861,828.17,853,836.58c-5.58,5.83-11,11.88-17.59,16.69a5.16,5.16,0,0,1-.17-1.15c.27-3-.44-4.69-4.12-3.89-2.12.46-3.46,1.15-2.75,3.33.94,2.83,3,2.9,5.34,1.54.41-.23,1.14.08,1.72.15-8.55,9.81-18.53,18.23-28.74,26.1-13,10-26,20-39.77,29a314.38,314.38,0,0,1-32.16,18.92c-18.24,9.11-36,19.23-55.55,25.72-11.64,3.86-23,8.51-34.86,11.79-10.75,3-21.37,6.36-32.41,8.5-8.2,1.58-16.3,4.16-24.62,5.24-13.64,1.76-27.23,3.66-41,4.39-7.81.42-15.81.8-23.68,1.63-1.65.17-3.91-1.46-5,1.2h-27c-.13-1.41-1.24-1.24-2.14-1.23-28.11.27-55.8-3-83.48-8a417.57,417.57,0,0,1-57.1-14.08c-36.17-11.86-71-27-103.29-47.41-16.21-10.23-32.08-20.9-47-32.92,3.64-.3,7.22-.4,10.1,2.81-.65-2.87,5.14-9.17-4-6.93-.32.08-.82-.65-1.25-1-4.45-3.41-6-2.86-7.62,2.69-.56-.13-1.29-.09-1.67-.44C177.47,865,160.53,852,146.51,835.9,142.23,831,137.21,826.67,133.93,820.91Zm376.62,76.32c-.2-1.39.36-3.33-2.1-3.15a1.57,1.57,0,0,0-1.08,1.07c-.18,2.46,1.77,1.89,3.17,2.09,0,1,0,1.94,0,2.91,0,1.87.84,2.91,2.8,2.87,1,0,2.09.08,2.55-1,.94-2.14-1.14-2.59-2.25-3.43A14.86,14.86,0,0,0,510.55,897.23Zm266.11-53.35c1.57-3.27.47-5.81,2.14-7.82,1.54-1.84.57-2.7-1.53-2.88-5.7-.47-11-2.84-16.51-3.89-3.52-.66-7,.73-10,2.14-2.34,1.09-1.94,5-.68,6.17,2,1.95,5.37,3.84,8.2,1.25,3-2.74,5.81-2.22,9.14-1.17C770.93,838.79,774.28,840,776.66,843.88ZM809,825.61c-.5-2.18-2.54-2-3.56-3.14-1.16-1.35-3.36-.08-3.41.68-.31,5.58-5.46,8.78-6.59,13.84-.48,2.15-.43,4.72,2.91,4.12a52.27,52.27,0,0,0,9.39-2.73,3.81,3.81,0,0,0,2.22-3.81C809.67,831.46,800.34,829.46,809,825.61Zm-27.62,32.08c-1.35,1.92-2,4-3.34,4.56-3.35,1.45-3.43,4.87-5.24,7.2-.63.8-1.14,1.64-.32,2.56s1.62.29,2.56,0C782.37,869.48,784.12,865.91,781.38,857.69ZM310.65,922.31c5.51,2.24,2.25-3.39,4.6-4,1-.25,3.4.12,2-2.14a3.11,3.11,0,0,0-3.66-1.18c-1.25.47-2.37,1.29-3.6,1.86-2.16,1-6.65-1.58-6.43,2.58C303.79,923.86,309.15,920.22,310.65,922.31Zm234.62-20.74c-1.29-.33-2.28-.64-2.58.24-.75,2.22-1.3,6,.49,6.28,3.29.51,5.91,4.25,9.62,2.14.36-.2.38-1,.56-1.5C549.15,907.85,550.28,900.73,545.27,901.57Zm279.65-57.28c3.4.37,7-1.67,9.87,1.22.18.18,1.41-.39,1.9-.87s.18-1.31-.21-2C833.67,837.45,829.29,838,824.92,844.29Zm-57-17.56c-.32-3.35-2.25-5.24-4.44-6.84a2.52,2.52,0,0,0-4,.88c-.9,1.49-.23,2.38,1.26,3.16C762.93,825.05,764.64,827.1,767.92,826.73ZM525.54,890.82a8.75,8.75,0,0,1-2,6.93c-.56.72-1.41,1.6-.35,2.43a1.84,1.84,0,0,0,2.91-.7C527.11,896.61,529.92,893.53,525.54,890.82ZM808.7,848.37c-1.46.09-2.73.2-2.32,1.9.55,2.28,2.25,2.88,4.39,2.68,1.3-.11,3.25,0,2.83-1.83C813,848.66,810.25,849.21,808.7,848.37ZM304,931.48c-.14.32-.46.7-.37.93s.59.3.91.43c.13-.31.45-.7.36-.92S304.34,931.62,304,931.48Z" transform="translate(-10.24 -14.23)"/><path class="cls-1" d="M509.37,14.23c1.43,3.11,4.47,1.66,6.49,1.74,20.45.84,40.73,3.08,61,5.52,21.13,2.55,41.65,7.78,62,13.29a313.94,313.94,0,0,1,45.84,16.45c10.08,4.5,20.57,8.19,30.46,13.21,1.35.68,2.58,1.59,3.87,2.39a49.1,49.1,0,0,1-3.61,3.74c-.93.79-2.87,1-2.77-.36.41-5.21-2.47-3.3-5-2.69-2.12.5-3.32-.66-3.71-2.69-.31-1.65-.25-3.47-2.34-4.31-.35.48-1,.94-1,1.38.25,6.47-.21,11.37-8.79,13.1-4.07.81-7.72,6.66-10.32,11-2.7,4.49-5.16,4.46-7.89,1.07-2.38-3-4.58-4.43-8.39-3a3.25,3.25,0,0,1-4.1-1.43c-.83-1.6.53-2.53,1.47-3.42,2.54-2.39,3.81-5.86,6.94-7.78s.15-4.2.3-6.31c.3-4.12-1.69-7.17-4.94-9.78-1.64,2.79.68,3.77,1.64,5.26,1.52,2.34,1.36,4.39-1.14,5.94s-4.74,1.91-6.21-1.33c-.24-.53-.42-1.24-.85-1.51-3.2-2-.59-10.73-8.67-7.32-4.09,1.72-9.32.7-11.79,6-1.33,2.89-3.84,2.42-5.36-.23-1.3-2.26-3.21-2.57-5.45-2.48-1.94.07-4.26-.27-4.85,2.17-.66,2.73,1.9,2.89,3.6,3.62,2.23,1,6,1.42,5,4.49a12.64,12.64,0,0,1-7.75,8.1c-2.62.86-5.15.25-6.19-2.76-1.78-5.12-6.08-4.44-9.76-3.74-4.76.91-7.73-.3-9.85-4.69-2-4.11-4.65-7.7-10.15-7.24a3.27,3.27,0,0,1-3.81-2.81c-.27-1.33-.29-2.89-2.27-2.69-1.61.17-2,1.48-2.59,2.79-1.69,4.12-1.17,8.4-.92,12.63.15,2.46,2.17,2.85,4.28,3,3,.14,6.91-1,8.1,2.81,1.25,4-3.78,4.4-5.09,6.85-6,11.2-16.5,8.86-30.32,9,4.1,0,4.1,0,4.1-8.15,0-1.94-.06-3.88,0-5.82.1-3.12-1.26-4.7-4.5-4.67-16.52.16-14-2-14.28,13.59-.08,3.81,1.63,5.3,5.31,5.07,1.75-.11,3.51,0,9.36,0,4.68,4.69,2.35,6.2-2.05,5.87-2.89-.22-5.81,0-8.72,0-1.42,0-3.08.31-3.19,1.85-.15,2,1.81,1.44,3,1.61,3.05.42,6.1.84,9.15,1.19a2.35,2.35,0,0,1,2.37,2.08c-8.35.74-16.3-2.69-24.61-2.38-2.62-10.12-7.07-13.45-16.88-12.66-11.46.93-22.94,1.29-34.45,1.48-5.46.09-11.58-1.12-15.67,5.67-2.75,4.58-15.51.48-16.82-5-1.2-5-.48-10-.42-15.06,0-2.77,2.18-3.33,4.56-3.33,5.86,0,11.73-.21,17.57.07,4.79.24,6.37-1.91,5.87-6.27-.57-4.89-2-9.6,1.73-14.35,1.87-2.37-1.05-2.53-2.77-1.74-5.44,2.52-10.93,4.63-17.13,3.68-1.15-.18-2.36.06-3.5-.14-7.62-1.35-7.62-1.37-7.62,6.6,0,10.72,0,10.86-10.6,10.93-5,0-7.26,2-7,7a57.81,57.81,0,0,1-.1,7.56,3.71,3.71,0,0,1-3.18,3.67,3.27,3.27,0,0,1-3.49-3.25c-.28-6.37-.77-12.79.27-19.14.42-2.51,2.69-3.64,4.59-5,.94-.67,1.87-1.62,1.39-2.93s-1.58-1.55-2.8-1.75c-3.83-.62-7.51,1-11.48.53-2.43-.26-1.91,3.13-.35,4.38,8.66,6.95,3.71,16.2,4.07,24.41.11,2.71-3.26,4.15-6.4,2.54a9.53,9.53,0,0,1-2.42-1.63c-6.45-6.41-14.35-7.91-23.08-7-1.62.16-4.61,1.09-4.49-1.88.09-2.34,2.79-1.47,4.38-1.49,6.25-.11,12.49,0,18.74-.06,2.09,0,4.74.46,5.27-2.36.57-3-1.85-3.26-4.12-3.5-3.29-.34-2.1-1.9-.82-3.41,1.42-1.68,3.15-3.87.59-5.33-2.3-1.32-3.87,1.34-5,3-3.79,5.65-3.57,5.59-8.34,0-2.18-2.53-5.49-1.13-8.28-1-2.47.07-3,2.11-3,4.22a9.16,9.16,0,0,1-2.24,6.45c-2.37,2.82-2.85,5.35.46,7.85,1.5,1.13,2.29,2.87,1.38,4.64A3.19,3.19,0,0,1,375,89.41c-1.88-.61-3.72-1.5-3.81-3.87a73.35,73.35,0,0,1-.05-7.56c.25-4-1.35-5.53-5.44-5.58-8-.09-13.2-6.43-11.95-14,.23-1.41,1.73-2.9-.15-4.14a2.06,2.06,0,0,0-2.65.55c-1.28,1.32-3.88,2.42-2.62,4.61,2,3.49,1.69,6.06-1.51,8.48a2.23,2.23,0,0,0-.21,2.19c4,4.58.82,10,1.82,15,1.2,6-5.53,7.38-8,11.69,2.2-6,.75-10.34-3.35-14.83-3.49-3.82,1.18-7.18,2.83-10.22,1.84-3.39,1.93-6.24.16-9.22a4.87,4.87,0,0,0-5.49-2.43c-2.11.54-2.07,2.52-2.14,4.3a28.86,28.86,0,0,1-.44,5.19c-.29,1.26-.9,2.65-2.61,2.73-10.44.47-20.73,3.57-31.3,1.83a2.35,2.35,0,0,0-2.79,1.53c-.9,2.05-1,4.75-4.11,5-2.94.2-6.23.56-8.5-1.3-3-2.46-5.81-4.8-9.84-5.3-.51-.07-.85-1.57-1.26-2.4a303.49,303.49,0,0,1,44.6-20.13c10.81-3.89,21.28-8.69,32.24-12.27,12.57-4.09,25.17-8.06,38.1-10.75,15.79-3.29,31.58-6.87,47.55-8.92C445,18.13,456,17.64,467,16.76c7.74-.63,15.52-.81,23.28-1.23,1-.06,2.45.47,2.69-1.3Z" transform="translate(-10.24 -14.23)"/><path class="cls-1" d="M989.76,518.64l-1.26,0c-1.25-5.56-2.91-11.14,1.26-16.28Z" transform="translate(-10.24 -14.23)"/><path class="cls-1" d="M988.5,484.89l1.26,0v11.65C985.25,493.07,987.45,488.92,988.5,484.89Z" transform="translate(-10.24 -14.23)"/><path class="cls-1" d="M217.7,105.32c7.16-7.71,16.54-12.21,25.47-17.37,3.6-2.07,7.19-4.16,10.78-6.24.58,1.47-2.37,3.42.36,4.44,1.71.64,3.13-.92,3.66-2.26.94-2.38,3.34-2.92,5.21-4.46-1.5-1.57-3.36.8-4.45-.85,2.25-3.22,6.42-2.84,9.28-4.92.39,1.56-2.48,3.73.94,4.75A3.18,3.18,0,0,1,271.22,83c-.84,2-1.84,4.68-4.66,4.55a38.19,38.19,0,0,0-14.35,2.22c3.36,3,5.79,15.78,3.82,19.65a2.75,2.75,0,0,1-2.88,1.48c-4.56-.2-9.13.82-13.47-2.2s-9.19.91-14,.71C222.08,109.24,219.31,108.81,217.7,105.32Z" transform="translate(-10.24 -14.23)"/><path class="cls-1" d="M933.65,724.91a376.51,376.51,0,0,1-22,38.11c-.81-2.67,0-4.72,1.89-6.81,4-4.33,3.77-8.08-.35-11.84-1.44-1.31-2.31-.55-3.31.66a18,18,0,0,0-3.85,7,3.55,3.55,0,0,1-5.12,2.3c-2.36-1.38-.34-2.89.7-4.22.45-.58,1.18-1.67,1-1.93-4-5.4.42-6.45,4-8.36a8.34,8.34,0,0,0,4.68-7.53c.06-5.6,3-7.72,8.56-7.53C924.42,724.88,929,726,933.65,724.91Z" transform="translate(-10.24 -14.23)"/><path class="cls-1" d="M108.62,791.24a147.87,147.87,0,0,1-16-23.32c3.44.61,3.65.55,2.81-2.6-.44-1.67.62-1.92,1.39-2.68,2.23-2.22,5-1.7,7.73-1.66,1.23,0,3.13-.63,3.4,1.23.26,1.71-1.43,1.87-2.78,2.22-2.62.69-6.71,7.71-5.9,9.9,1.71,4.59,6.58,6.32,11.62,3.75,2.18-1.11,3.83-2.49,2-5.92-2.45-4.59-.92-7.81,4-9.83-3,3.79-1.24,5.92,1.16,8.4,2.19,2.28,4.65,4.53-1.19,7.17-2.57,1.16-10.49,3.64-7.18,10.86C110.13,789.65,109.49,790.63,108.62,791.24Z" transform="translate(-10.24 -14.23)"/><path class="cls-1" d="M292.61,94.48c.28,2.22-.5,4.52-1.56,6.87-1.72,3.83-3.94,6.84-8.67,6-5.06-.92-3.44-5.16-3.83-8.37-.37-3-.88-6.06-1.11-9.1-.11-1.44-.64-3.7,1.16-4.06,4.1-.82,7.63,2,11.61,2.57C293.23,88.82,292.55,91.87,292.61,94.48Z" transform="translate(-10.24 -14.23)"/><path class="cls-1" d="M784.82,785.44c4.45-6.49,10.32-11.72,15.73-17.35,2.21-2.3,3.36-5.57,6.47-7,3.45,4-.39,7.77-.7,11.62-.14,1.75-3.2-1.16-4.65,1,2.16,4.09,4.36,8,10.39,6,1.26-.41,3.46-.72,3.91,1.36s-1.59,2.46-3,3c-3.09,1.12-6.23,2.74-9.4,2.86-4.39.16-4.37-3.89-4.63-7-.14-1.71,1.88-4.31-1.42-4.41-2.63-.08-1.54,2.2-1.44,3.94.15,2.83-1,5.23-4.42,3.5S788,787,784.82,785.44Z" transform="translate(-10.24 -14.23)"/><path class="cls-1" d="M726.1,70.24a124.64,124.64,0,0,1,24.53,14.27c-1.16,1.6.27,5.48-3.48,4.68-3-.66-7.41.63-8.28-4.51a16.59,16.59,0,0,0-2.36-5.23c-.69-1.19-2-2.18-3.38-1.73-1.75.58-1.19,2.25-.75,3.45.61,1.71.58,3.14-1.3,3.78s-3.39-.53-4.78-1.54-2-3.44-.95-4.06C730.19,76.48,727.58,73.39,726.1,70.24Z" transform="translate(-10.24 -14.23)"/><path class="cls-1" d="M770.82,96.52a58.19,58.19,0,0,1,16.27,12c-.68,1-1.71,1.3-2.4.37-2.76-3.71-6.37-2.69-10.28-3a65.57,65.57,0,0,1-20.64-4.65c-2.6-1.11-4-3.73-2.69-6.27,1.61-3.17,4.16-.43,6,.16s3.52,2.33,5.29,3.51C766,101,768.93,100.85,770.82,96.52Z" transform="translate(-10.24 -14.23)"/><path class="cls-1" d="M708.93,92.3c4.68,0,9.36,0,14,0,1.43,0,2.8.23,3,2,.12,1.33-.49,2.53-1.86,2.41-9.48-.78-18.88,3.2-28.38.4-1.67-.49-3.76-.4-3.33-3,.35-2.17,2.19-1.85,3.7-1.87,4.29,0,8.58,0,12.87,0Z" transform="translate(-10.24 -14.23)"/><path class="cls-1" d="M624.48,92.28c4.26,0,8.36-.15,8,6.09-.23,4-.84,6.61-5.76,4.68-1-.37-2.25.1-3.39.17-3.69.25-6.95.08-7.35-4.85-.38-4.69,2-6.18,6.2-6.09C622.94,92.3,623.71,92.28,624.48,92.28Z" transform="translate(-10.24 -14.23)"/><path class="cls-1" d="M538.81,791.29c3.89-6.44,9.63-11.31,14.52-16.9.15.56.55,1.21.4,1.67-1.65,5.08-1.16,7.64,4.76,4.21.73-.42,1.69-.45,2,.36a2.23,2.23,0,0,1-.44,2c-2.9,2.27-5.79,4.76-10,3.63-1.27-.34-2.73-1.48-3.75-.08-1.3,1.75.45,3.2,1,4.75.85,2.22,5.86,3.4,2.79,6.3s-4.1-2.86-7.06-3.17C541.89,794,541.4,790.68,538.81,791.29Z" transform="translate(-10.24 -14.23)"/><path class="cls-1" d="M970.53,631.63c-3.29,15.29-8.75,29.87-14.8,44.26-.81-2-1.25-4.21-4.37-3.71a2,2,0,0,1-2.13-2.23,2.09,2.09,0,0,1,1.85-2c6.59-1.14,7-7.61,9.22-11.78a67,67,0,0,0,7.37-22.1A3,3,0,0,1,970.53,631.63Z" transform="translate(-10.24 -14.23)"/><path class="cls-1" d="M525.78,101.24c-6-.81-12.08-.76-18.11-1.75-4.2-.7-8.7.08-11.33,4.44-3-.8-4.77-1.7-.67-3.83,1.89-1,3.58-2.26,5.91-2a2.74,2.74,0,0,0,3.08-2c1.43-3.53,7.49-5.91,11.12-4.56,1.25.47,2.85,1,2.65,2.64s-1.93,1.51-3.25,1.62-2.76-.34-4.17,1.13c3.19,2.2,6.68.84,9.89,1.17C523.15,98.3,525.89,97.51,525.78,101.24Z" transform="translate(-10.24 -14.23)"/><path class="cls-1" d="M162.68,809.63c-6.86,5.55-11.58-2.18-17.61-3.27-3.25-.59-2.55-3.05-2.24-5,.41-2.49,2.37-1.68,4.14-1.57,4.89.28,6.81,5.73,11.8,6.25,2.08.22,4,1.73,6.49.88,2.11-.71,3.49,1.16,4.71,2.57a2.19,2.19,0,0,1-.19,2.15c-1.87,1.37-3.1-.15-4.46-1.2A9.1,9.1,0,0,0,162.68,809.63Z" transform="translate(-10.24 -14.23)"/><path class="cls-1" d="M588.27,740.89c8-7.09,15.79-14.36,24.46-20.64,2.59,3.55.82,6-2.66,6.09-3.2.07-4.2,2.57-6,3.85-2.83,2,1.77,2.33,2,4.42-9.24-.68-5.57,6.06-5.77,11.32C596.33,742.92,594.3,736.42,588.27,740.89Z" transform="translate(-10.24 -14.23)"/><path class="cls-1" d="M369.94,101.11c0,.78,0,1.55,0,2.33-.06,2.33.08,5.4-2.57,5.83-3.09.49-2.83-3-3.69-5-.93-2.13-1.62-4.37-2.68-6.42-1.26-2.46-2.22-5.15.89-6.41s6.36-.6,7.44,3.32a42,42,0,0,1,.82,6.28Z" transform="translate(-10.24 -14.23)"/><path class="cls-1" d="M668.69,759.7l-15.2,18.55c0-.77.24-1.68-.09-2.28-1.9-3.41-4.87-7,2.87-6.25,1.82.16,1.81-2.54,1.92-4.29C658.74,756,659.84,755.44,668.69,759.7Z" transform="translate(-10.24 -14.23)"/><path class="cls-1" d="M839.54,772.26c1.2,5.41-3.86,9.07-1.23,13.74.44.79-.92,1.86-1.91,1.44-1.89-.79-4.46-.1-5.65-2.29a2,2,0,0,1,.92-2.93c3.64-1.26,3.22-2.46.87-5.13-2.61-3,.12-9.23,4.1-9.62C841.33,767,839.07,771.14,839.54,772.26Z" transform="translate(-10.24 -14.23)"/><path class="cls-1" d="M647.42,128c-7.06-2.31-14.32-4.08-20.93-7.62.26-.28.69-.84.75-.8,5.63,3.53,10.42.57,15.39-1.75,1.83-.85,3.94-1.87,5.75.51s1,4.17-.36,6.28C647.45,125.51,647.6,126.86,647.42,128Z" transform="translate(-10.24 -14.23)"/><path class="cls-1" d="M812.51,128.39c6.83,4.89,13.75,9.67,19.06,16.31-7.81.59-12.62-5-18.15-8.91C810.68,133.84,811.54,131,812.51,128.39Z" transform="translate(-10.24 -14.23)"/><path class="cls-1" d="M73.86,737.52c-7.21-11.95-13.88-24.18-19-37.18,3.19.91,3.44,4.47,5.62,6.22,4.31,3.45,2.79,9.22,5.65,13.31,1.9,2.72,2.6,5.93,5.81,8.16C74.7,730,75.53,733.88,73.86,737.52Z" transform="translate(-10.24 -14.23)"/><path class="cls-1" d="M86.23,757.93c-5.08-6.1-8.57-13.17-12.32-20.08,2.59.07,5.79-1.52,5.43,3.74-.2,2.9,2.53,1.78,4.18.67,1.18-.79,2.55-1.7,3.55-.2s-.73,2.18-1.58,3.17c-1,1.16-3.93,1.27-2.77,3.64.88,1.79,2.37,2.74,4.7,1.07,1.11-.8,2.49.81,3,2.07.69,1.66-.89,1.77-1.89,2.18C86.85,754.88,86.43,756.34,86.23,757.93Z" transform="translate(-10.24 -14.23)"/><path class="cls-1" d="M174.07,815.37c1.36-2.22,7-4.6-.61-6-2.52-.45-1.56-5.09-3.59-7.17,0-.05.7-1.14.9-1.09.67.19,1.57.51,1.84,1,1.9,3.79,4.64,3.45,7.75,1.77,1.23-.66,2.52-1.27,3.63.13s0,2.55-.87,3.51C180.47,810.47,181.37,817.44,174.07,815.37Z" transform="translate(-10.24 -14.23)"/><path class="cls-1" d="M853.08,165.22A203.83,203.83,0,0,1,874.78,189c-3.7.12-6.88.08-7.15-5.15-.14-2.68-3.43-4.95-5.51-5.43-5.38-1.25-5-7.09-8.74-9.39C852.3,168.41,852.71,166.56,853.08,165.22Z" transform="translate(-10.24 -14.23)"/><path class="cls-1" d="M974.63,385.8a171.48,171.48,0,0,1,7.75,38.49c-2.58-.71-3.21-2.88-3.09-5,.57-9.85-3.36-18.84-5.18-28.23C973.74,389.19,972.61,387.39,974.63,385.8Z" transform="translate(-10.24 -14.23)"/><path class="cls-1" d="M954.53,678.21c-.14,5.42-4,9.28-5.91,14-2.45-1.2-2.35-3.72-3-5.83a1.18,1.18,0,0,1,.23-1.07c3.63-2.6-5.63-3.62-.77-6.35,2.5-1.4,5.26,1.13,7.75-.6C953.23,678.05,954,678.24,954.53,678.21Z" transform="translate(-10.24 -14.23)"/><path class="cls-1" d="M808.23,759.8l14-18.14c.67,5.71-2,10.82-4.19,15.57C816.83,759.82,811.94,760.36,808.23,759.8Z" transform="translate(-10.24 -14.23)"/><path class="cls-1" d="M979.83,593.18A184.8,184.8,0,0,1,971,629.29c-1.87-3.26-.21-6.47.83-9.26,2.84-7.66,4-15.59,5-23.57C977.08,594.4,977.53,593.1,979.83,593.18Z" transform="translate(-10.24 -14.23)"/><path class="cls-1" d="M199,767.67,213.47,783C204.36,782.68,198.87,776.87,199,767.67Z" transform="translate(-10.24 -14.23)"/><path class="cls-1" d="M125.61,650.44a153.73,153.73,0,0,1,12.33,27.8c-1.77,0-3.94,0-4.27-2.07-1.26-7.85-5.21-14.64-8.19-21.81A5.22,5.22,0,0,1,125.61,650.44Z" transform="translate(-10.24 -14.23)"/><path class="cls-1" d="M224.94,815c-2.51-.31-6.49,4-6.09-4.13.27-5.64,1.92-5.7,5.39-6.5,1.54-.35,3.24-.64,3.73,1.47.4,1.68-.36,2.9-1.9,3.79C222.29,811.77,222.32,811.81,224.94,815Z" transform="translate(-10.24 -14.23)"/><path class="cls-1" d="M604.07,106.25c-4.79-.06-10-8.28-7.77-12.43.23-.43,1-1,1.21-.91.65.26,1.5.78,1.64,1.35.37,1.48.17,3.1.61,4.54.62,2,1.58,4.25,4.4,3.22,1.39-.5,2.49-2.1,4-.36a2.39,2.39,0,0,1,.41,2.7C607.67,106.27,605.86,106.28,604.07,106.25Z" transform="translate(-10.24 -14.23)"/><path class="cls-1" d="M179.8,135.25A11.63,11.63,0,0,1,187,129c.57,3.5,2.78,3,5.2,2.15,1.93-.65,4.46-.95,4.85,1.4.53,3.19-2.49,2.73-4.48,2.76C188.3,135.41,184.05,135.3,179.8,135.25Z" transform="translate(-10.24 -14.23)"/><path class="cls-1" d="M205.5,802.09c1.72,1.23,3,2.9,4.15,2.83,7.21-.45,5.54,4.58,5.61,8.54,0,1.1.23,2.61-1.31,2.78-1.31.14-2-1.11-2.35-2.2a37.83,37.83,0,0,1-1-4.45c-.27-1.41-.69-2.56-2.44-2.7C204.72,806.63,204.73,806.59,205.5,802.09Z" transform="translate(-10.24 -14.23)"/><path class="cls-1" d="M603.11,113c-8.44-.83-16.44-3.62-24.64-5.51,3.58-2.57,7.1-3.44,11-.32S599.26,109.4,603.11,113Z" transform="translate(-10.24 -14.23)"/><path class="cls-1" d="M121.88,808.17c-4.85-4.16-8.47-9.3-11.79-14.68,3.7.36,6.52,3,9.47,4.61C122.67,799.83,124,804.14,121.88,808.17Z" transform="translate(-10.24 -14.23)"/><path class="cls-1" d="M711.77,79.92c-.22,2.14-1.22,3.36-2.45,3.56-2.77.47-4.57-1.62-6.14-3.4-1.36-1.56-2.25-3.63-1.2-5.85.44-.93,1.54-1.84,2.25-1.26C707,75.23,709.46,77.76,711.77,79.92Z" transform="translate(-10.24 -14.23)"/><path class="cls-1" d="M882.88,628.05c3.43-9.11,3.78-19.14,8.51-27.85,1.26.18,2.79.95,1.93,2.11-4.71,6.34-4.17,14.28-6.88,21.19C885.75,625.26,886.05,628.09,882.88,628.05Z" transform="translate(-10.24 -14.23)"/><path class="cls-1" d="M892.78,746.12c1.43,2.48.85,4.63.86,6.69,0,3.25-1.2,4.61-4.09,2-.84-.76-1.33-2-2.78-1.28s-3.3,2.74-3.48-.78c-.11-2.32,1.47-4.68,3.8-4C890,749.5,890.79,747.35,892.78,746.12Z" transform="translate(-10.24 -14.23)"/><path class="cls-1" d="M911.16,763.27a30,30,0,0,1-6.75,9.85c-.07-1.52-.11-3-.21-4.56-.12-2-.65-3.59-3.11-2.13-1,.6-1.94,1.62-2.49-.27a2.15,2.15,0,0,1,1.38-2.73C903.71,761.64,907.44,763.24,911.16,763.27Z" transform="translate(-10.24 -14.23)"/><path class="cls-1" d="M844.65,736.51c2.53,3,5.15,5.84,7.52,8.92.57.75-.33,1.82-1.27,2.24-1.51.67-3.11.72-4.25-.57-1.94-2.22-2.46-5.7-6-6.54-.17,0-.33-1.07-.13-1.46C841.11,737.94,842.26,737.7,844.65,736.51Z" transform="translate(-10.24 -14.23)"/><path class="cls-1" d="M164.33,738.78c-.64,1.65-.69,3.08,1.5,3.47,1.49.26,2.79.77,2.22,2.54a3.53,3.53,0,0,1-2,1.88c-1.54.56-3.27.34-4.06-1.24-1-2-2-4.21-1.77-6.58.16-1.48-1.08-4,1.62-4.08C164,734.74,165.4,736.3,164.33,738.78Z" transform="translate(-10.24 -14.23)"/><path class="cls-1" d="M642.66,693.27l11.88-12.89C653.53,689.68,650,693.46,642.66,693.27Z" transform="translate(-10.24 -14.23)"/><path class="cls-1" d="M158.09,713.66c4.7,4.47,6.56,10.86,10.73,15.68-2.68.35-4.63-3-7.54-1.5-.65-1.35-5.44-2.1-.64-4.25,2.21-1,.73-2.27.13-3.18C159.41,718.32,157.74,716.41,158.09,713.66Z" transform="translate(-10.24 -14.23)"/><path class="cls-1" d="M138,678.24c4,4.39,6.13,9.74,8.18,15.15H140.3C142.86,687.6,136.26,683.61,138,678.24Z" transform="translate(-10.24 -14.23)"/><path class="cls-1" d="M553.37,774.35c4.07-4.11,7-9.36,12.11-12.45C563.16,771.47,560.17,774.55,553.37,774.35Z" transform="translate(-10.24 -14.23)"/><path class="cls-1" d="M579.12,788c-1.28,6.69-4.46,8.45-8.94,5.52-.81-.52-1.75-1-1.69-2.12.07-1.3,1.29-1.31,2.16-1.52C573.26,789.2,575.9,788.66,579.12,788Z" transform="translate(-10.24 -14.23)"/><path class="cls-1" d="M130.32,817.12c-3.76-2-5.92-5.43-8.24-8.75,3.43.9,7.42,1,10.16,2.89C135.72,813.67,133.41,815.91,130.32,817.12Z" transform="translate(-10.24 -14.23)"/><path class="cls-1" d="M181.46,746.75l9,10.77c-4.94.67-8-3.42-13.83-4.83C181.16,751.69,181.52,749.33,181.46,746.75Z" transform="translate(-10.24 -14.23)"/><path class="cls-1" d="M606.34,765c2.54,4.82,6.31,6.1,11.46,5.17-2.44,3.55-6.87,3.49-9.72,3C604.51,772.44,605.39,768.29,606.34,765Z" transform="translate(-10.24 -14.23)"/><path class="cls-1" d="M676.93,750.47a18.24,18.24,0,0,1-6,6.92c-.45-2.92-4.62-5.46-2.71-8.07C670.86,745.66,673.73,751.53,676.93,750.47Z" transform="translate(-10.24 -14.23)"/><path class="cls-1" d="M156.38,718.69a4.26,4.26,0,0,1-3.81,3.71,20.14,20.14,0,0,0-7.06,2.46c-.83.53-1.77,1.16-2.45,0a2.21,2.21,0,0,1,.58-3.09c3.37-2.38,8.63-.63,11.21-5.06C155.1,716.28,156,717.83,156.38,718.69Z" transform="translate(-10.24 -14.23)"/><path class="cls-1" d="M861.51,678.59l7.74-15.45C870.46,670.08,866.76,677.47,861.51,678.59Z" transform="translate(-10.24 -14.23)"/><path class="cls-1" d="M165.46,147.39l12.33-10.69c-.35,2.15-.74,6.18-1,6.17C172.24,142.79,170.16,148.48,165.46,147.39Z" transform="translate(-10.24 -14.23)"/><path class="cls-1" d="M127.41,798.22c-3.47.22-4.45-2.15-3.12-4.39s3.39-5.08,6.76-4.45c1.42.27,2.27,2.19,1.91,3.84s-1.75.86-2.81.62c-5.1-1.14-3,2.22-2.74,4.38Z" transform="translate(-10.24 -14.23)"/><path class="cls-1" d="M481,181.91a37.6,37.6,0,0,1-9.22,15C474,191.35,475.12,185.19,481,181.91Z" transform="translate(-10.24 -14.23)"/><path class="cls-1" d="M830.22,731.69c1.88-2.74,3.16-5.92,5.81-8.12,1.77,1.68,3.08,4.11,2,6C836.46,732.53,833.08,731.84,830.22,731.69Z" transform="translate(-10.24 -14.23)"/><path class="cls-1" d="M852.13,696.23l9.06-17.38C861.85,684.08,856.22,694.87,852.13,696.23Z" transform="translate(-10.24 -14.23)"/><path class="cls-1" d="M947.27,697.26a77.7,77.7,0,0,1-6.51,13.19C940.2,700.68,941.06,699,947.27,697.26Z" transform="translate(-10.24 -14.23)"/><path class="cls-1" d="M839,719c1.58-5.54,5.75-9.43,9-13.91C847.25,711.16,845,716.25,839,719Z" transform="translate(-10.24 -14.23)"/><path class="cls-1" d="M900,726.41c-.73,2.55.79,5.77-3.07,6.53-2.73.54-4.29-.76-5.35-3.13-.29-.66-1.1-1.23-.54-1.95a1.83,1.83,0,0,1,2.6-.3C896.31,730.52,898.06,728.67,900,726.41Z" transform="translate(-10.24 -14.23)"/><path class="cls-1" d="M985.87,546.59A57.15,57.15,0,0,1,984,564.1C981.46,557.93,982.9,552.18,985.87,546.59Z" transform="translate(-10.24 -14.23)"/><path class="cls-1" d="M577.73,780.58c-1.76-.71-2.72-2.15-2.22-4s1.23-4,3.65-3.74c2,.23,2.8,2.07,2.33,3.88S580.28,780.45,577.73,780.58Z" transform="translate(-10.24 -14.23)"/><path class="cls-1" d="M205.79,784c1.47,2.69,1.81,5.1,4.58,5.64a2.81,2.81,0,0,1,2.13,3.09,2.21,2.21,0,0,1-2,1.8c-1.78.3-2.28-1.19-3-2.24C205.94,790.11,204,788.05,205.79,784Z" transform="translate(-10.24 -14.23)"/><path class="cls-1" d="M903.51,515.15c-.53-5,2.26-10.25-.74-15.18,2.87.08,3.46,2.26,3.7,4.37A14.11,14.11,0,0,1,903.51,515.15Z" transform="translate(-10.24 -14.23)"/><path class="cls-1" d="M875.34,648c1.31-5.28,2.66-10.55,6-15C881.8,638.76,879,645.85,875.34,648Z" transform="translate(-10.24 -14.23)"/><path class="cls-1" d="M496.18,119.07c-.14,5.43,1.23,11-1,16.27C494.09,129.83,492.19,124.27,496.18,119.07Z" transform="translate(-10.24 -14.23)"/><path class="cls-1" d="M959.1,334.64c2.95,5.11,4.06,10.86,5.67,16.43C959.91,346.6,959.48,340.63,959.1,334.64Z" transform="translate(-10.24 -14.23)"/><path class="cls-1" d="M706.26,715.53c-2.38,3.41-4.68,6.89-8.29,9.21C697,718.33,700.65,716.06,706.26,715.53Z" transform="translate(-10.24 -14.23)"/><path class="cls-1" d="M341.8,131.81c-2.55,3.41-7,2.92-10.22,4.88-.71-.44-1.33-1.59-.72-1.77a10.42,10.42,0,0,0,6.05-4.67C338,128.59,340.36,130.47,341.8,131.81Z" transform="translate(-10.24 -14.23)"/><path class="cls-1" d="M148.6,163.37a57.38,57.38,0,0,1,9.86-9.9C159.14,159,156.28,161.87,148.6,163.37Z" transform="translate(-10.24 -14.23)"/><path class="cls-1" d="M190.57,757.72a32.09,32.09,0,0,1,7.05,7.88c-3.09,0-5.91-1.79-10.29-.81C190,762.27,191.16,760.27,190.57,757.72Z" transform="translate(-10.24 -14.23)"/><path class="cls-1" d="M964.77,352.2a51.62,51.62,0,0,1,5.72,16.17C966.12,363.84,965.23,358.1,964.77,352.2Z" transform="translate(-10.24 -14.23)"/><path class="cls-1" d="M118.76,632.89c3.15,5.05,4.53,10.85,6.94,16.21C120.68,644.84,118.55,639.36,118.76,632.89Z" transform="translate(-10.24 -14.23)"/><path class="cls-1" d="M571.67,756.34A34.67,34.67,0,0,1,582,747C580.34,752,576.76,755,571.67,756.34Z" transform="translate(-10.24 -14.23)"/><path class="cls-1" d="M899.9,553.77c.61-4.33.43-8.8,2.17-12.94C903.8,545.55,903.85,550,899.9,553.77Z" transform="translate(-10.24 -14.23)"/><path class="cls-1" d="M831.58,144.71a33.54,33.54,0,0,1,9.76,8.13C837.19,151.2,831.38,151.52,831.58,144.71Z" transform="translate(-10.24 -14.23)"/><path class="cls-1" d="M680.89,143,670,137.5C675,136.13,679.85,138.58,680.89,143Z" transform="translate(-10.24 -14.23)"/><path class="cls-1" d="M242.12,193.59c-2.22,4.35-6.42,6.43-10.3,8.87C233.6,197.6,236.86,194.44,242.12,193.59Z" transform="translate(-10.24 -14.23)"/><path class="cls-1" d="M306.67,149.34c-1.44,2.21-4.14,2.21-6.13,3.43-1.31-.87-2.85-2.38-1.49-3.51C301.28,147.39,304.14,147.58,306.67,149.34Z" transform="translate(-10.24 -14.23)"/><path class="cls-1" d="M694.36,729.45a16.78,16.78,0,0,1-5.36,7.2C686.92,732.25,687.85,731,694.36,729.45Z" transform="translate(-10.24 -14.23)"/><path class="cls-1" d="M987,535.93c-.11,2.41.81,4.91-.69,7.19-1.51-.06-3.86.12-3.89-1.49C982.36,538.89,985,537.52,987,535.93Z" transform="translate(-10.24 -14.23)"/><path class="cls-1" d="M987.13,470.7c1.49,3.84,1.46,7.82,1.14,11.83C986.34,478.73,983.92,475,987.13,470.7Z" transform="translate(-10.24 -14.23)"/><path class="cls-1" d="M602.92,755.36c-.11,1.75-1.27,2.34-2.39,1.75-1.36-.72-4,0-3.83-2.57a2.78,2.78,0,0,1,2.85-2.46C601.52,752.2,602.47,753.71,602.92,755.36Z" transform="translate(-10.24 -14.23)"/><path class="cls-1" d="M388.62,156.35a37.39,37.39,0,0,1,3.73-11.61C392.88,149.18,393.65,153.68,388.62,156.35Z" transform="translate(-10.24 -14.23)"/><path class="cls-1" d="M216.85,119.27c2,.31,1.91,1.76,1.89,3.11,0,2.07-1.31,2.65-3.13,2.35-1.22-.2-2.39-.88-2.2-2.22A3.83,3.83,0,0,1,216.85,119.27Z" transform="translate(-10.24 -14.23)"/><path class="cls-1" d="M197.43,802.62c-1-2.24-5.63-1.85-3.93-5.72.36-.82,2.25-1.86,2.72-1.58C199.28,797.09,196.93,800.08,197.43,802.62Z" transform="translate(-10.24 -14.23)"/><path class="cls-1" d="M357,126c-2.91,2.89-6.83,3.57-10.52,4.74.2-.91.29-2.58.61-2.62C350.48,127.66,353.45,125.33,357,126Z" transform="translate(-10.24 -14.23)"/><path class="cls-1" d="M983.77,566.4c-.43,3.28.45,6.75-1.4,9.83C981.66,572.79,976.67,568.75,983.77,566.4Z" transform="translate(-10.24 -14.23)"/><path class="cls-1" d="M751.87,85c3.31,1.42,7.15,1.9,9.31,5.3C755.92,92.24,754.38,87.77,751.87,85Z" transform="translate(-10.24 -14.23)"/><path class="cls-1" d="M471.64,197a14.94,14.94,0,0,1-5.58,8.31C467.57,202.34,465.08,196.68,471.64,197Z" transform="translate(-10.24 -14.23)"/><path class="cls-1" d="M704.29,107.28c-2.16,0-2.68-1.08-2.71-2.61,0-1.75.47-3.07,2.56-2.91,1.8.14,2,1.47,2,2.89S705.63,107.24,704.29,107.28Z" transform="translate(-10.24 -14.23)"/><path class="cls-1" d="M610.08,115.59c-1.26-.15-2.75.23-3.39-1.41a13.37,13.37,0,0,1,2.52-2.15c1.4-.7,3.34-2.16,4.16.45S612.22,115.63,610.08,115.59Z" transform="translate(-10.24 -14.23)"/><path class="cls-1" d="M622.92,119.34c-2.94-.17-5.93-.2-8.06-2.74C619,113.36,621.6,114.48,622.92,119.34Z" transform="translate(-10.24 -14.23)"/><path class="cls-1" d="M892.66,596.73c.19-4,.52-8,2.45-11.62C896,589.33,896.58,593.51,892.66,596.73Z" transform="translate(-10.24 -14.23)"/><path class="cls-1" d="M334.91,237.93c2.4-2.37,3.7-5.71,6.74-7.5C341.88,235.13,340.4,238.31,334.91,237.93Z" transform="translate(-10.24 -14.23)"/><path class="cls-1" d="M791.75,111.84a13.86,13.86,0,0,1,8.3,6C796.46,117,792.14,117.09,791.75,111.84Z" transform="translate(-10.24 -14.23)"/><path class="cls-1" d="M662.86,134.07c-2.33.18-4.12-1-5.8-2.38.47-.31.93-.88,1.42-.89,1.81-.07,2.57-3.2,4.38-2C664.87,130.17,662.19,132.28,662.86,134.07Z" transform="translate(-10.24 -14.23)"/><path class="cls-1" d="M133.89,180.15a29.16,29.16,0,0,1,7.57-8.68C140.45,175.68,139.24,179.7,133.89,180.15Z" transform="translate(-10.24 -14.23)"/><path class="cls-1" d="M733.2,173.69c-2.57-.27-3.87-2.56-5.89-3.69.23-1.64,1-2.93,2.81-2.95s1.67,1.64,2,2.87S732.83,172.43,733.2,173.69Z" transform="translate(-10.24 -14.23)"/><path class="cls-1" d="M296.3,155.25c-2.66,3.28-7.21,3.53-10.2,6.27C287,155.45,291.9,155.73,296.3,155.25Z" transform="translate(-10.24 -14.23)"/><path class="cls-1" d="M113.43,615.3a25,25,0,0,1,2.62,9.09C109.44,623,113.73,618.49,113.43,615.3Z" transform="translate(-10.24 -14.23)"/><path class="cls-1" d="M915.73,651.94c-.19,1.46-1.2,1.8-2.43,1.72-1.71-.11-2.95-.93-3-2.73,0-1.44,1.16-1.79,2.39-1.72A2.85,2.85,0,0,1,915.73,651.94Z" transform="translate(-10.24 -14.23)"/><path class="cls-1" d="M654.47,680.44c2.38-2.69,4-6.09,7.25-8C661.62,677.21,659.73,680.35,654.47,680.44Z" transform="translate(-10.24 -14.23)"/><path class="cls-1" d="M379.39,177.35c.38-2.75,1.1-5.32,3.61-7C387.52,175.63,382.09,175.79,379.39,177.35Z" transform="translate(-10.24 -14.23)"/><path class="cls-1" d="M713.25,160.74c-3.2-1.66-7.11-2.17-9.26-5.56C708.45,154.78,711.6,156.51,713.25,160.74Z" transform="translate(-10.24 -14.23)"/><path class="cls-1" d="M133.13,806c2.87-.69,5-1.67,6.48.29.78,1-.55,2.13-1.49,2.64C135.55,810.29,135.12,807.68,133.13,806Z" transform="translate(-10.24 -14.23)"/><path class="cls-1" d="M846.87,158.58c3.39,1,4.17,4.45,6.25,6.67C847.21,166.58,848,161.67,846.87,158.58Z" transform="translate(-10.24 -14.23)"/><path class="cls-1" d="M864.63,796.45c-1.58.08-1.84.17-2,.08-2.19-1.67-2.68-4-2.51-6.57a1.7,1.7,0,0,1,1.4-.42C864.2,791.12,862.72,794.06,864.63,796.45Z" transform="translate(-10.24 -14.23)"/><path class="cls-1" d="M169.56,730.75c2.35,2,3.6,4.72,5.23,7.2C168.63,738.72,169.81,734.22,169.56,730.75Z" transform="translate(-10.24 -14.23)"/><path class="cls-1" d="M984.59,438.44c1.81,2.87,1.47,6,1.11,9.15C979.85,445.2,984.75,441.51,984.59,438.44Z" transform="translate(-10.24 -14.23)"/><path class="cls-1" d="M133.81,803.19a5.49,5.49,0,0,1,1.56-6.74C137.07,800.23,137.07,800.23,133.81,803.19Z" transform="translate(-10.24 -14.23)"/><path class="cls-1" d="M158.52,153.43l6.8-5.86C166.66,153.66,162.21,153.11,158.52,153.43Z" transform="translate(-10.24 -14.23)"/><path class="cls-1" d="M937.87,716.67c-.91,3-1.81,6.05-4.27,8.29C933.38,721.36,933.11,717.73,937.87,716.67Z" transform="translate(-10.24 -14.23)"/><path class="cls-1" d="M320.66,133.51c-.24,1.41-.8,2.71-2.46,2.57a1.83,1.83,0,0,1-1.7-2.44c.36-1.23.85-2.73,2.54-2.66C320.56,131,320.68,132.3,320.66,133.51Z" transform="translate(-10.24 -14.23)"/><path class="cls-1" d="M368,122.57c-1.87,1.3-3.73,2.59-6.18,2.4C362.83,121.62,363.51,117.28,368,122.57Z" transform="translate(-10.24 -14.23)"/><path class="cls-1" d="M809.23,792.11c-1.75,1.49-2.09,4.13-4.91,3.19-.91-.31-1.05-1.68-.59-2.56C805,790.44,806.76,791.12,809.23,792.11Z" transform="translate(-10.24 -14.23)"/><path class="cls-1" d="M982.36,577.87a27.11,27.11,0,0,1-2,9.48C978,583.56,979.57,580.58,982.36,577.87Z" transform="translate(-10.24 -14.23)"/><path class="cls-1" d="M214.41,783.45l6,5.78C214.94,790.86,213.62,788.23,214.41,783.45Z" transform="translate(-10.24 -14.23)"/><path class="cls-1" d="M575,107.23c-3,.35-5.84-.09-8.16-2.27C570.11,103.7,572.87,104.32,575,107.23Z" transform="translate(-10.24 -14.23)"/><path class="cls-1" d="M320.69,142.22a26.35,26.35,0,0,1-8.14,3.94C313,140.18,317.48,142.53,320.69,142.22Z" transform="translate(-10.24 -14.23)"/><path class="cls-1" d="M152.3,704.9c2.86,1.56,3.17,5,5.2,7.12C153.93,711,151.54,709.07,152.3,704.9Z" transform="translate(-10.24 -14.23)"/><path class="cls-1" d="M942.63,657.61c1.73.35,2.43,1.24,2.37,2.53-.08,1.54-1.29,1.78-2.52,1.66a1.67,1.67,0,0,1-1.7-1.91A2.65,2.65,0,0,1,942.63,657.61Z" transform="translate(-10.24 -14.23)"/><path class="cls-1" d="M374.47,185.37c1.3-2.85,2.06-6,4.88-8C378.42,180.47,379.47,184.75,374.47,185.37Z" transform="translate(-10.24 -14.23)"/><path class="cls-1" d="M317.42,87c.25-1.53,1.36-1.76,2.61-1.61a1.63,1.63,0,0,1,1.63,1.95c-.18,1.26-.87,2.25-2.27,2.12S317.5,88.32,317.42,87Z" transform="translate(-10.24 -14.23)"/><path class="cls-1" d="M593.33,84.79a2.85,2.85,0,0,1-1.83-3.18c.06-1.08.6-2,1.69-1.85,1.86.2,1.67,1.76,1.66,3.08C594.85,83.85,594.58,84.71,593.33,84.79Z" transform="translate(-10.24 -14.23)"/><path class="cls-1" d="M871.75,657.27c.37-2.32.83-4.6,3.16-5.89C875.49,654.21,877.71,657.91,871.75,657.27Z" transform="translate(-10.24 -14.23)"/><path class="cls-1" d="M758.9,193.74c-2.28-.29-3.37-2.08-4.64-3.64C756.64,188.06,757.91,189.05,758.9,193.74Z" transform="translate(-10.24 -14.23)"/><path class="cls-1" d="M253.91,184.19c-1.34,1.46-2.15,3.63-4.69,3.48C247.83,182.58,251.26,183.9,253.91,184.19Z" transform="translate(-10.24 -14.23)"/><path class="cls-1" d="M177.78,741.17c2.67,1,2.78,3.58,3.74,5.65h-5.17A7.86,7.86,0,0,0,177.78,741.17Z" transform="translate(-10.24 -14.23)"/><path class="cls-1" d="M199.69,813.85a2.46,2.46,0,0,1-2.6,1.63,1.16,1.16,0,0,1-1.25-1.47c.35-1.24.78-2.68,2.44-2.72C199.37,811.26,200,812,199.69,813.85Z" transform="translate(-10.24 -14.23)"/><path class="cls-1" d="M394.7,134.22a6.12,6.12,0,0,1,.76-4.74c1.49.22,3.42.42,3.19,2.32S396.34,133.89,394.7,134.22Z" transform="translate(-10.24 -14.23)"/><path class="cls-1" d="M893.46,735.82l-3,4.88C888.71,736.72,888.71,736.72,893.46,735.82Z" transform="translate(-10.24 -14.23)"/><path class="cls-1" d="M877.33,192.38c1.37,2.1,4.2,3.07,4.57,5.92C876.91,199,877.05,195.73,877.33,192.38Z" transform="translate(-10.24 -14.23)"/><path class="cls-1" d="M762.43,91.18c2.67,0,4.05,2.12,5.84,3.56C764,97.35,763.26,94.19,762.43,91.18Z" transform="translate(-10.24 -14.23)"/><path class="cls-1" d="M882,710.15c-.22,1,.26,2.66-1.52,2.24a3.56,3.56,0,0,1-2.21-2.27c-.22-1.08.93-2,2.09-2.23C882.12,707.61,881.77,709.13,882,710.15Z" transform="translate(-10.24 -14.23)"/><path class="cls-1" d="M155.49,723.84c-1,2.38-.21,4.68-2.84,5.08-.35.05-1.1-.62-1.18-1C151,725.45,152.55,724.6,155.49,723.84Z" transform="translate(-10.24 -14.23)"/><path class="cls-1" d="M466.09,205.31c-1.28,2.43-2.35,5-4.87,6.52C461.79,208.88,462.1,205.74,466.09,205.31Z" transform="translate(-10.24 -14.23)"/><path class="cls-1" d="M167.21,814.28c1.61,2.87,1.33,4.68.28,7.44C165.63,819,165.82,817.14,167.21,814.28Z" transform="translate(-10.24 -14.23)"/><path class="cls-1" d="M492.47,151.91c-1.05,2.13,0,4.89-2,6.72C489.36,155.86,487.6,152.91,492.47,151.91Z" transform="translate(-10.24 -14.23)"/><path class="cls-1" d="M132,775.3a1.56,1.56,0,0,1-1.36,1.62c-1.19.2-1.77-.55-1.89-1.58-.13-1.2.12-2.41,1.62-2.46C131.44,772.85,132,773.69,132,775.3Z" transform="translate(-10.24 -14.23)"/><path class="cls-1" d="M896.62,574.49c1.35-2.09,0-4.94,2-6.86C899.68,570.41,901.25,573.33,896.62,574.49Z" transform="translate(-10.24 -14.23)"/><path class="cls-1" d="M970.8,370.76c1.73,2,1.24,4.72,2.33,6.93C969.85,376.21,968.94,374,970.8,370.76Z" transform="translate(-10.24 -14.23)"/><path class="cls-1" d="M216.28,797.69a2.67,2.67,0,0,1-2.5,2.67c-1,.1-1.39-.56-1.12-1.44s.21-2.42,1.67-2.74C215.52,795.92,216.08,796.61,216.28,797.69Z" transform="translate(-10.24 -14.23)"/><path class="cls-1" d="M562.11,104.56a7,7,0,0,1-4.76-.42c.15-1.77,1.07-2.64,2.9-2.43S562,103.26,562.11,104.56Z" transform="translate(-10.24 -14.23)"/><path class="cls-1" d="M982.88,427.72c1.53,2.18.66,4.7,1,7C980.11,432.89,981.06,430.37,982.88,427.72Z" transform="translate(-10.24 -14.23)"/><path class="cls-1" d="M454.05,220.33a14,14,0,0,1-4.44,5.62C449.36,222.72,450.05,220.23,454.05,220.33Z" transform="translate(-10.24 -14.23)"/><path class="cls-1" d="M904.67,722.05c1.15,1.5,3.12,2.41,2.29,4.43-.37.9-1.92.92-2.62.36C902.38,725.27,904.4,723.83,904.67,722.05Z" transform="translate(-10.24 -14.23)"/><path class="cls-1" d="M825.2,738.13c2.16-1.8,2.34-5.13,5.08-6.5C830.28,735.11,829.48,738,825.2,738.13Z" transform="translate(-10.24 -14.23)"/><path class="cls-1" d="M385.18,116.74c-1.47,2-3.56,2.4-5.86,2.23C380.46,116.14,382.48,115.57,385.18,116.74Z" transform="translate(-10.24 -14.23)"/><path class="cls-1" d="M384.12,168l2.18-5.87C388.5,165.19,387.76,167.14,384.12,168Z" transform="translate(-10.24 -14.23)"/><path class="cls-1" d="M282,164.33a4.12,4.12,0,0,1-4.64,2.45C277.42,163.16,279,162.44,282,164.33Z" transform="translate(-10.24 -14.23)"/><path class="cls-1" d="M366.84,197.13a11.18,11.18,0,0,1,3.91-5.57C371.47,194.82,370.84,197.15,366.84,197.13Z" transform="translate(-10.24 -14.23)"/><path class="cls-1" d="M159.57,731.68c-1.4,1.31-2.79,2.7-4.8,1.5a1.07,1.07,0,0,1-.15-1C155.93,730,157.85,731.61,159.57,731.68Z" transform="translate(-10.24 -14.23)"/><path class="cls-1" d="M986.31,460.37c1.56,2.26.76,4.76.74,7.19C984.56,465.39,984.68,463,986.31,460.37Z" transform="translate(-10.24 -14.23)"/><path class="cls-1" d="M195.3,768.81c0,1.12-.19,2.23-1.37,2.15-.83-.06-2.17-.72-2.29-1.31-.26-1.2.88-2,2-2.35C195,766.89,195.14,768,195.3,768.81Z" transform="translate(-10.24 -14.23)"/><path class="cls-1" d="M345.51,225.13a13.57,13.57,0,0,1,4.53-5.82C350.14,222.49,348.72,224.5,345.51,225.13Z" transform="translate(-10.24 -14.23)"/><path class="cls-1" d="M588.55,783.74c.1,1.29-.75,1.55-1.76,1.57-.77,0-1.58-.08-1.82-.95-.31-1.15.51-1.79,1.44-2A1.84,1.84,0,0,1,588.55,783.74Z" transform="translate(-10.24 -14.23)"/><path class="cls-1" d="M328.9,137.61a5.73,5.73,0,0,1-4.65,2.31C324.36,136.28,326,135.6,328.9,137.61Z" transform="translate(-10.24 -14.23)"/><path class="cls-1" d="M129.94,184.31c.92-1.69,1.68-3.53,3.85-4.05C135.35,184.28,132.7,184.35,129.94,184.31Z" transform="translate(-10.24 -14.23)"/><path class="cls-1" d="M873.1,768.61c-1.3.09-1.56-.75-1.58-1.76,0-.76.08-1.57,1-1.8a1.59,1.59,0,0,1,2,1.42A1.84,1.84,0,0,1,873.1,768.61Z" transform="translate(-10.24 -14.23)"/><path class="cls-1" d="M370.91,191.29a10.71,10.71,0,0,1,3.61-6C374.69,188.13,375,191,370.91,191.29Z" transform="translate(-10.24 -14.23)"/><path class="cls-1" d="M842.16,153.61a9.91,9.91,0,0,1,4.75,5C843.84,158.35,841.75,157.15,842.16,153.61Z" transform="translate(-10.24 -14.23)"/><path class="cls-1" d="M204.45,131a1.36,1.36,0,0,1-1.06,1.69,1.41,1.41,0,0,1-1.91-1.42,1.35,1.35,0,0,1,1.37-1.48A1.39,1.39,0,0,1,204.45,131Z" transform="translate(-10.24 -14.23)"/><path class="cls-1" d="M904,641.32c0,.83-.24,1.49-1.13,1.66a1.42,1.42,0,0,1-1.85-1.5,1.35,1.35,0,0,1,1.42-1.43A1.39,1.39,0,0,1,904,641.32Z" transform="translate(-10.24 -14.23)"/><path class="cls-1" d="M146.14,693.41a7.74,7.74,0,0,1,3.45,5.79C146.37,698.49,146.31,695.92,146.14,693.41Z" transform="translate(-10.24 -14.23)"/><path class="cls-1" d="M702.57,154.69c-2-.31-3.17-1.83-4.53-3.08C701.71,149.5,702.42,151.68,702.57,154.69Z" transform="translate(-10.24 -14.23)"/><path class="cls-1" d="M116,624.33c1.65,1.72,2,3.92,2.29,6.14C114.16,629.65,116.09,626.61,116,624.33Z" transform="translate(-10.24 -14.23)"/><path class="cls-1" d="M489.23,162.11c0,1.64.43,3.38-1.07,4.69C486.63,164.81,486.33,163.1,489.23,162.11Z" transform="translate(-10.24 -14.23)"/><path class="cls-1" d="M356.37,211.11l3-3.53C361,211,358.56,210.93,356.37,211.11Z" transform="translate(-10.24 -14.23)"/><path class="cls-1" d="M848.39,703.87c-.45-1.66.66-2.06,1.91-2.35.61.33,1.77.79,1.73,1C851.54,704.67,849.67,703.53,848.39,703.87Z" transform="translate(-10.24 -14.23)"/><path class="cls-1" d="M117.44,786.62c.36,1.32,0,1.93-.91,2s-1.73-.19-1.56-1.13a8.6,8.6,0,0,1,1.34-2.38Z" transform="translate(-10.24 -14.23)"/><path class="cls-1" d="M148.76,735.85c1.23-.1,1.85.19,1.85,1.14s-.34,1.5-1.25,1.57-1.67-.1-1.53-1.1A4.67,4.67,0,0,1,148.76,735.85Z" transform="translate(-10.24 -14.23)"/><path class="cls-1" d="M928.84,707.9c-1-.15-1.07-.92-1.06-1.67s0-1.64,1.06-1.63,1,.9,1,1.64S929.86,707.77,928.84,707.9Z" transform="translate(-10.24 -14.23)"/><path class="cls-1" d="M743.71,181.78c-2.46.16-3.37-1.8-4.59-3.34C741.5,178.4,743.46,178.93,743.71,181.78Z" transform="translate(-10.24 -14.23)"/><path class="cls-1" d="M912.45,751.42c-.31,1.05-.32,2.11-1.36,1.75-.46-.16-.8-1.15-.85-1.79s.15-1.74,1.2-1.4C912,750.15,912.21,751.05,912.45,751.42Z" transform="translate(-10.24 -14.23)"/><path class="cls-1" d="M569.8,768.15c1,.07,1.42.73,1.09,1.48a2.52,2.52,0,0,1-1.6,1.28c-1,.16-1.15-.76-1.08-1.52S569,768.21,569.8,768.15Z" transform="translate(-10.24 -14.23)"/><path class="cls-1" d="M173.06,757.55c.75.07,1.65.05,1.64,1.07s-.9,1-1.64,1-1.65,0-1.64-1S172.31,757.61,173.06,757.55Z" transform="translate(-10.24 -14.23)"/><path class="cls-1" d="M853.31,174.09c.11,1.22-.19,1.83-1.14,1.83s-1.5-.32-1.58-1.23.1-1.65,1.1-1.51A4.45,4.45,0,0,1,853.31,174.09Z" transform="translate(-10.24 -14.23)"/><path class="cls-1" d="M898.71,564.08c-.13-1.63-.58-3.29.65-4.73C901.15,561.2,901.64,562.87,898.71,564.08Z" transform="translate(-10.24 -14.23)"/><path class="cls-1" d="M188.81,127.08c1.19-1.38,1.92-3.3,4.14-3.47C193.32,126.83,191.53,127.51,188.81,127.08Z" transform="translate(-10.24 -14.23)"/><path class="cls-1" d="M422.47,251.82c-.38,2.19-2.75,2.55-3.83,4.1C417.59,252.4,420.53,252.57,422.47,251.82Z" transform="translate(-10.24 -14.23)"/><path class="cls-1" d="M686.31,145.8c-2.24,0-3.8-1.22-5.22-2.73C683.74,142.25,685.57,143,686.31,145.8Z" transform="translate(-10.24 -14.23)"/><path class="cls-1" d="M189.27,770.57c0,.77-.14,1.66-1.12,1.48a2.46,2.46,0,0,1-1.57-1.28c-.31-.76.18-1.44,1.12-1.43A1.4,1.4,0,0,1,189.27,770.57Z" transform="translate(-10.24 -14.23)"/><path class="cls-1" d="M825.54,781.44a1.53,1.53,0,0,1-1.47,1.42c-.84,0-1.58-.49-1.35-1.32a2.44,2.44,0,0,1,1.49-1.47C825.05,779.85,825.48,780.6,825.54,781.44Z" transform="translate(-10.24 -14.23)"/><path class="cls-1" d="M374.59,120.1a5.35,5.35,0,0,1-4.37,2.13C370.15,118.43,371.94,118.4,374.59,120.1Z" transform="translate(-10.24 -14.23)"/><path class="cls-1" d="M378,291.41c-1.13,1.67-2.28,3.31-4.5,3.66C373.54,292.09,375.48,291.41,378,291.41Z" transform="translate(-10.24 -14.23)"/><path class="cls-1" d="M955.89,326.13a5.21,5.21,0,0,1,2,5C954.84,330.4,956,328,955.89,326.13Z" transform="translate(-10.24 -14.23)"/><path class="cls-1" d="M487.14,169.17c-.19,1.82-.52,3.57-2.43,4.46C485,171.84,484.1,169.46,487.14,169.17Z" transform="translate(-10.24 -14.23)"/><path class="cls-1" d="M697.91,724.79c-.13,1.29-.47,2.41-2.09,2.43-.79-.42-2.13-1.13-1.45-1.78S696.7,725,697.91,724.79Z" transform="translate(-10.24 -14.23)"/><path class="cls-1" d="M141.44,171.48a5.56,5.56,0,0,1,3.49-3.57C145.25,170.54,144.11,171.75,141.44,171.48Z" transform="translate(-10.24 -14.23)"/><path class="cls-1" d="M661.76,672.44a4.36,4.36,0,0,1,3.29-3.75C665.24,671.05,664,672.21,661.76,672.44Z" transform="translate(-10.24 -14.23)"/><path class="cls-1" d="M386.3,283.31c-.18,2.15-1.82,2.79-3.53,3.36A3.38,3.38,0,0,1,386.3,283.31Z" transform="translate(-10.24 -14.23)"/><path class="cls-1" d="M127.41,798.22c1.39.14,3-.35,3.92,1.83-2,.64-3.53.78-3.92-1.83Z" transform="translate(-10.24 -14.23)"/><path class="cls-1" d="M483.55,176.14c-.11,1.3-.17,2.63-1.51,3.4C480.69,177.59,481.25,176.48,483.55,176.14Z" transform="translate(-10.24 -14.23)"/><path class="cls-1" d="M643.36,765.6c.53.37,1.2.58,1.29.94.25,1-.56,1.24-1.28,1.13a1.38,1.38,0,0,1-1-.93C642.39,766.4,643,766,643.36,765.6Z" transform="translate(-10.24 -14.23)"/><path class="cls-1" d="M973.5,380c1.34.93.67,2.35.88,3.55C971.83,382.88,971.53,381.7,973.5,380Z" transform="translate(-10.24 -14.23)"/><path class="cls-1" d="M855.56,772.17c.17,1-.32,1.35-.92,1.32a1.85,1.85,0,0,1-1.36-.7c-.31-.67.31-1.1.92-1.1A4.22,4.22,0,0,1,855.56,772.17Z" transform="translate(-10.24 -14.23)"/><path class="cls-1" d="M882.56,775.1c.83.21,1.43.55,1.1,1.21a1.82,1.82,0,0,1-1.37.67c-.6,0-1.21-.45-.89-1.12C881.59,775.46,882.24,775.29,882.56,775.1Z" transform="translate(-10.24 -14.23)"/><path class="cls-1" d="M565.27,787.14c-.17-.34-.62-.83-.56-1.24s.66-.72,1-1.08c.28.43.74.84.81,1.3C566.64,786.74,566.24,787.21,565.27,787.14Z" transform="translate(-10.24 -14.23)"/><path class="cls-1" d="M845.55,719.18c.48.67,1,1.08,1,1.48s-.52.85-.81,1.28c-.35-.36-.94-.69-1-1.09S845.15,720,845.55,719.18Z" transform="translate(-10.24 -14.23)"/><path class="cls-1" d="M601.51,793c1-.17,1.36.32,1.32.92a1.75,1.75,0,0,1-.7,1.34c-.67.32-1.1-.31-1.1-.91A4.17,4.17,0,0,1,601.51,793Z" transform="translate(-10.24 -14.23)"/><path class="cls-1" d="M363,201.8l3.34-3.81C366.72,200.57,365.8,202,363,201.8Z" transform="translate(-10.24 -14.23)"/><path class="cls-1" d="M52.6,695.65a3.92,3.92,0,0,1-1.43-3.41C53.6,692.57,54.28,693.62,52.6,695.65Z" transform="translate(-10.24 -14.23)"/><path class="cls-1" d="M79,731.89l-1.35-1.14c.36-.35.71-1,1.09-1s.85.51,1.28.79Z" transform="translate(-10.24 -14.23)"/><path class="cls-1" d="M582.06,747c.05-1.76,1.48-2.25,2.71-2.93C585.94,746.92,583.89,746.85,582.06,747Z" transform="translate(-10.24 -14.23)"/><path class="cls-1" d="M988.16,524.28c.18,1.73.49,3.48-1.13,4.79C986.19,527.19,985.87,525.43,988.16,524.28Z" transform="translate(-10.24 -14.23)"/><path class="cls-1" d="M679.83,736.93a4.48,4.48,0,0,1-1.38.45c-.61,0-1.21-.46-.88-1.12a1.78,1.78,0,0,1,1.37-.67C679.54,735.57,680,736,679.83,736.93Z" transform="translate(-10.24 -14.23)"/><path class="cls-1" d="M210.38,820.37c-.63.42-1,.87-1.42.91-.76.07-1.5-.3-1.24-1.21.09-.32.85-.63,1.29-.62S209.78,819.94,210.38,820.37Z" transform="translate(-10.24 -14.23)"/><path class="cls-1" d="M587.69,65.49c-.71.44-1.16,1-1.57.92s-.79-.6-1.19-.93c.4-.33.78-.88,1.19-.92S587,65,587.69,65.49Z" transform="translate(-10.24 -14.23)"/><path class="cls-1" d="M175.45,738.13c1.7.31,1.89,1.75,2.3,3C175.93,740.94,173.57,741.13,175.45,738.13Z" transform="translate(-10.24 -14.23)"/><path class="cls-1" d="M385,112c-.68.48-1.09,1-1.49,1s-.86-.51-1.28-.8c.36-.35.69-.93,1.09-1S384.22,111.59,385,112Z" transform="translate(-10.24 -14.23)"/><path class="cls-1" d="M823.38,741.13a3.86,3.86,0,0,1,1.66-2.87C825.07,739.55,827.65,742.31,823.38,741.13Z" transform="translate(-10.24 -14.23)"/><path class="cls-1" d="M585,87.53l1.18,1.25c-.4.33-.79.92-1.19.92s-.78-.59-1.18-.92Z" transform="translate(-10.24 -14.23)"/><path class="cls-1" d="M633.18,702.38c.49-1.42.67-3.11,2.77-3.1C635.89,701.08,635.81,702.85,633.18,702.38Z" transform="translate(-10.24 -14.23)"/><path class="cls-1" d="M170.16,797.5a4.08,4.08,0,0,1-1.38.45c-.61,0-1.22-.46-.89-1.12a1.78,1.78,0,0,1,1.37-.66C169.86,796.15,170.36,796.54,170.16,797.5Z" transform="translate(-10.24 -14.23)"/><path class="cls-1" d="M457.08,217.32l-2.87,2.87C454.33,218.41,454.51,216.68,457.08,217.32Z" transform="translate(-10.24 -14.23)"/><path class="cls-1" d="M585,743.89l2.87-2.82C587.74,742.84,588,745,585,743.89Z" transform="translate(-10.24 -14.23)"/><path class="cls-1" d="M874.87,189.11c1.54.57,2,2,2.49,3.3C875,192.43,874.91,190.8,874.87,189.11Z" transform="translate(-10.24 -14.23)"/><path class="cls-1" d="M431.55,243.71l-2.49,2.84C428.18,244.12,429.68,243.75,431.55,243.71Z" transform="translate(-10.24 -14.23)"/><path class="cls-1" d="M144.9,168a3.67,3.67,0,0,1,2.49-3.23C147.35,166.4,147.19,168,144.9,168Z" transform="translate(-10.24 -14.23)"/><path class="cls-1" d="M418.51,256l-3,2.5C415.72,256.73,415.89,254.94,418.51,256Z" transform="translate(-10.24 -14.23)"/><path class="cls-1" d="M367.24,301.06c-1,1-1.5,2.61-3.16,3C364,301.86,364.79,300.58,367.24,301.06Z" transform="translate(-10.24 -14.23)"/><path class="cls-1" d="M331.41,242.61a3,3,0,0,1,2.3-3.26C333.66,240.94,333.51,242.45,331.41,242.61Z" transform="translate(-10.24 -14.23)"/><path class="cls-1" d="M974,585.38a3.39,3.39,0,0,1-1.23.62c-.6,0-1.13-.31-.75-1a1.47,1.47,0,0,1,.9-.63C973.49,584.2,974,584.43,974,585.38Z" transform="translate(-10.24 -14.23)"/><path class="cls-1" d="M92.27,766.72c-2-.32-2.23-1.85-2.43-3.42C92.22,763.34,92.28,765,92.27,766.72Z" transform="translate(-10.24 -14.23)"/><path class="cls-1" d="M150.41,700.16l1.26,2.54c-1-.11-2.31.22-2.58-1.16C149,701.18,149.94,700.63,150.41,700.16Z" transform="translate(-10.24 -14.23)"/><path class="cls-1" d="M903.4,774.92c-.84,1.22-1,2.93-2.62,3.61C900.62,776.59,900.87,774.93,903.4,774.92Z" transform="translate(-10.24 -14.23)"/><path class="cls-1" d="M448.94,226.41c-.74,1.26-1.29,2.7-2.9,3.18C446.06,227.68,446.45,226.1,448.94,226.41Z" transform="translate(-10.24 -14.23)"/><path class="cls-1" d="M207,226.21c-.56,1.15-1,2.41-2.29,3C204.66,227.57,205,226.28,207,226.21Z" transform="translate(-10.24 -14.23)"/><path class="cls-1" d="M410.49,263.51c-.39,1.66-1.93,1.62-3.12,2.09C407.57,263.67,408.94,263.45,410.49,263.51Z" transform="translate(-10.24 -14.23)"/><path class="cls-1" d="M636,699.24c.79-1.13,1.21-2.58,2.77-3C639.8,699.05,637.89,699.13,636,699.24Z" transform="translate(-10.24 -14.23)"/><path class="cls-1" d="M638.89,696.21c1-.85,1.13-2.6,2.89-2.55C641.7,695.49,641.56,697.26,638.89,696.21Z" transform="translate(-10.24 -14.23)"/><path class="cls-1" d="M940.3,712a4.37,4.37,0,0,1-2,3.64C938.22,714,938,712.31,940.3,712Z" transform="translate(-10.24 -14.23)"/><path class="cls-1" d="M111,609.5A2.8,2.8,0,0,1,113,613C110.8,612.67,111,611,111,609.5Z" transform="translate(-10.24 -14.23)"/><path class="cls-1" d="M382.68,286.76c-.06,1.36-.51,2.41-2.09,2.56A2.12,2.12,0,0,1,382.68,286.76Z" transform="translate(-10.24 -14.23)"/><path class="cls-1" d="M652.51,779.58c.08,1.48-1.15,2-2,2.82C649.88,780.55,650.71,779.73,652.51,779.58Z" transform="translate(-10.24 -14.23)"/><path class="cls-1" d="M459,214.61a3.38,3.38,0,0,1-2,2.75C456.59,215.64,457.28,214.74,459,214.61Z" transform="translate(-10.24 -14.23)"/><path class="cls-1" d="M665,668.77a2.62,2.62,0,0,1,2.4-2.63C667.53,667.86,666.85,668.85,665,668.77Z" transform="translate(-10.24 -14.23)"/><path class="cls-1" d="M913.09,674.43c-.13.31-.27.63-.41.94-.31-.13-.81-.2-.9-.43s.22-.61.36-.93Z" transform="translate(-10.24 -14.23)"/><path class="cls-1" d="M977.58,581.24c-.14.31-.21.8-.44.89s-.62-.22-.93-.36c.14-.32.21-.81.44-.9S977.26,581.1,977.58,581.24Z" transform="translate(-10.24 -14.23)"/><path class="cls-1" d="M389.89,279.84c-.23,1.32-.75,2.38-2.29,2.55A2.14,2.14,0,0,1,389.89,279.84Z" transform="translate(-10.24 -14.23)"/><path class="cls-1" d="M118.74,749c-.14.32-.21.81-.44.9s-.61-.23-.93-.36c.14-.32.21-.81.44-.9S118.43,748.84,118.74,749Z" transform="translate(-10.24 -14.23)"/><path class="cls-1" d="M850.77,699.21a2.54,2.54,0,0,1,1.25-2.86C852.73,697.79,852.47,698.81,850.77,699.21Z" transform="translate(-10.24 -14.23)"/><path class="cls-1" d="M399.36,271.72c-.17,1.44-.75,2.47-2.43,2.4A2.13,2.13,0,0,1,399.36,271.72Z" transform="translate(-10.24 -14.23)"/><path class="cls-1" d="M402.61,269.31c-.1,1.35-.59,2.3-2.21,2.05A2.07,2.07,0,0,1,402.61,269.31Z" transform="translate(-10.24 -14.23)"/><path class="cls-1" d="M895.35,582.72c-.16-.86-.68-1.78.41-2.44C897.57,581.42,897.12,582.18,895.35,582.72Z" transform="translate(-10.24 -14.23)"/><path class="cls-1" d="M933.08,698.91c-.14.32-.21.81-.44.9s-.61-.22-.93-.36c.14-.31.2-.8.43-.89S932.76,698.78,933.08,698.91Z" transform="translate(-10.24 -14.23)"/><path class="cls-1" d="M585.08,793.88c-.33.12-.73.42-1,.32s-.27-.59-.4-.91c.32-.13.72-.43.95-.33S585,793.55,585.08,793.88Z" transform="translate(-10.24 -14.23)"/><path class="cls-1" d="M161.08,754.41c.31.14.81.21.9.44s-.23.61-.37.93c-.32-.14-.81-.21-.9-.44S160.94,754.73,161.08,754.41Z" transform="translate(-10.24 -14.23)"/><path class="cls-1" d="M881.46,701.22c-.14.32-.28.63-.41.95-.32-.14-.82-.21-.9-.43s.22-.62.36-.93Z" transform="translate(-10.24 -14.23)"/><path class="cls-1" d="M141,703.55l-.41,1c-.32-.14-.81-.21-.9-.43s.22-.62.36-.93Z" transform="translate(-10.24 -14.23)"/><path class="cls-1" d="M630.89,704.9a3.69,3.69,0,0,1,2.35-2.59C633.58,704.18,632.71,705,630.89,704.9Z" transform="translate(-10.24 -14.23)"/><path class="cls-1" d="M565.41,762a2.67,2.67,0,0,1,2.44-2.48C567.93,761.18,567.17,762.06,565.41,762Z" transform="translate(-10.24 -14.23)"/><path class="cls-1" d="M682.47,723l.95.41c-.14.32-.21.81-.43.9s-.62-.22-.94-.36Z" transform="translate(-10.24 -14.23)"/><path class="cls-1" d="M987.08,530.11l0,2.69Q984.14,531.45,987.08,530.11Z" transform="translate(-10.24 -14.23)"/><path class="cls-1" d="M851.79,801.28c-.32-.14-.81-.21-.9-.44s.22-.61.36-.93c.31.14.81.21.9.43S851.93,801,851.79,801.28Z" transform="translate(-10.24 -14.23)"/><path class="cls-1" d="M721.51,67.64c1.08,0,2,.33,2.23,1.51C721.62,70.64,721.64,69,721.51,67.64Z" transform="translate(-10.24 -14.23)"/><path class="cls-1" d="M426,248.3c0,1.4-.47,2.46-2.15,2.43A2.18,2.18,0,0,1,426,248.3Z" transform="translate(-10.24 -14.23)"/><path class="cls-1" d="M639,86.77c-.32.13-.72.42-.94.32s-.28-.59-.4-.91c.32-.12.72-.42.94-.32S638.85,86.45,639,86.77Z" transform="translate(-10.24 -14.23)"/><path class="cls-1" d="M429,246.59a3.53,3.53,0,0,1-2.93,1.6C426.44,246.49,427.41,245.93,429,246.59Z" transform="translate(-10.24 -14.23)"/><path class="cls-1" d="M889.28,765.16c-.31-.13-.81-.2-.9-.43s.22-.61.36-.93c.32.14.81.21.9.43S889.42,764.85,889.28,765.16Z" transform="translate(-10.24 -14.23)"/><path class="cls-1" d="M192.89,123.65c.24-1.39.92-2.24,2.48-2A2,2,0,0,1,192.89,123.65Z" transform="translate(-10.24 -14.23)"/><path class="cls-1" d="M286.08,161.53c-.47.8-.9,1.63-2,1.71C283,160.63,284.69,161.27,286.08,161.53Z" transform="translate(-10.24 -14.23)"/><path class="cls-1" d="M133.9,820.87c-1.08-.63-2.56-.87-2.63-2.55C133.21,818.09,134.45,818.58,133.9,820.87Z" transform="translate(-10.24 -14.23)"/><path class="cls-1" d="M827.61,766.46c-.14.31-.21.8-.45.9s-.61-.23-.93-.37c.14-.32.21-.81.44-.9S827.29,766.32,827.61,766.46Z" transform="translate(-10.24 -14.23)"/><path class="cls-1" d="M329.29,244.89c-.38-1.72.87-1.92,2-2.19A2.09,2.09,0,0,1,329.29,244.89Z" transform="translate(-10.24 -14.23)"/><path class="cls-1" d="M264,170c-.14.32-.21.8-.44.9s-.61-.23-.93-.37c.14-.31.21-.81.44-.9S263.71,169.88,264,170Z" transform="translate(-10.24 -14.23)"/><path class="cls-1" d="M439.83,236.72c.14,1.44-.82,1.72-1.94,1.85A1.87,1.87,0,0,1,439.83,236.72Z" transform="translate(-10.24 -14.23)"/><path class="cls-1" d="M268,173.66a3.09,3.09,0,0,1-2.05,2.1C266,174.48,265.11,172.28,268,173.66Z" transform="translate(-10.24 -14.23)"/><path class="cls-1" d="M360.29,307.71c0,1.43-.49,2.36-2.1,2.27A2.2,2.2,0,0,1,360.29,307.71Z" transform="translate(-10.24 -14.23)"/><path class="cls-1" d="M445.94,229.67c-.17,1.31-.71,2.26-2.21,2.32A2.18,2.18,0,0,1,445.94,229.67Z" transform="translate(-10.24 -14.23)"/><path class="cls-1" d="M178.25,844c.14-.32.21-.81.44-.9s.62.23.94.37c-.14.31-.21.81-.44.9S178.57,844.1,178.25,844Z" transform="translate(-10.24 -14.23)"/><path class="cls-1" d="M739.06,178.39c-1.56.1-2.47-.56-2.58-2.16A2.15,2.15,0,0,1,739.06,178.39Z" transform="translate(-10.24 -14.23)"/><path class="cls-1" d="M902.72,526.81l0-2.45C904.34,525.2,904.44,526,902.72,526.81Z" transform="translate(-10.24 -14.23)"/><path class="cls-1" d="M750.74,187.69c-1.7.23-2.4-.7-2.59-2.21C749.67,185.46,750.63,186.08,750.74,187.69Z" transform="translate(-10.24 -14.23)"/><path class="cls-1" d="M893.23,770.58c-.33.12-.73.42-1,.32s-.28-.59-.4-.91c.32-.13.72-.43,1-.33S893.1,770.26,893.23,770.58Z" transform="translate(-10.24 -14.23)"/><path class="cls-1" d="M209.14,223.84c-.43,1-.51,2.33-2.08,2.34A2.19,2.19,0,0,1,209.14,223.84Z" transform="translate(-10.24 -14.23)"/><path class="cls-1" d="M126,188.88c.19-1,.54-1.91,1.71-2.15C129,188.91,127.37,188.78,126,188.88Z" transform="translate(-10.24 -14.23)"/><path class="cls-1" d="M224.54,208.74a2.64,2.64,0,0,1-2.28,2.16A2.14,2.14,0,0,1,224.54,208.74Z" transform="translate(-10.24 -14.23)"/><path class="cls-1" d="M380.66,289.26a2.52,2.52,0,0,1-2.58,2.07A2.11,2.11,0,0,1,380.66,289.26Z" transform="translate(-10.24 -14.23)"/><path class="cls-1" d="M221,212.22a2.24,2.24,0,0,1-2.24,2.19A2.19,2.19,0,0,1,221,212.22Z" transform="translate(-10.24 -14.23)"/><path class="cls-1" d="M903.11,521l.32-2.34c.75.15,1.6.34,1.45,1.31S903.86,520.88,903.11,521Z" transform="translate(-10.24 -14.23)"/><path class="cls-1" d="M149,746.11c.14-.32.21-.81.44-.9s.62.23.93.36c-.14.32-.21.81-.43.9S149.28,746.25,149,746.11Z" transform="translate(-10.24 -14.23)"/><path class="cls-1" d="M364.94,206l.15-.41a1.58,1.58,0,0,1,.46.18s-.08.26-.13.4Z" transform="translate(-10.24 -14.23)"/><path class="cls-1" d="M131.12,736.79c0,.14.15.36.1.4a1.37,1.37,0,0,1-.47.16c0-.14-.15-.37-.1-.41A1.37,1.37,0,0,1,131.12,736.79Z" transform="translate(-10.24 -14.23)"/><path class="cls-1" d="M982.13,577.5l0,.11c-.52-.42-1-.85-1.54-1.29.07-.05.2-.16.21-.14Z" transform="translate(-10.24 -14.23)"/><path class="cls-1" d="M175.94,791.66l-.18-.62.42-.12Z" transform="translate(-10.24 -14.23)"/><path class="cls-1" d="M197,809.14l-.19-.63.43-.12C197.2,808.6,197.14,808.81,197,809.14Z" transform="translate(-10.24 -14.23)"/><path class="cls-1" d="M776.66,843.88c-2.38-3.91-5.73-5.09-9.23-6.2-3.33-1-6.15-1.57-9.14,1.17-2.83,2.59-6.2.7-8.2-1.25-1.26-1.21-1.66-5.08.68-6.17,3-1.41,6.47-2.8,10-2.14,5.55,1.05,10.81,3.42,16.51,3.89,2.1.18,3.07,1,1.53,2.88C777.13,838.07,778.23,840.61,776.66,843.88Zm-18.23-10.3c-.09-1.23-.93-1.49-2-1.47s-1.93.48-2,1.59.71,1.67,1.86,1.56A2.38,2.38,0,0,0,758.43,833.58Z" transform="translate(-10.24 -14.23)"/><path class="cls-1" d="M809,825.61c-8.66,3.85.67,5.85,1,9a3.81,3.81,0,0,1-2.22,3.81,52.27,52.27,0,0,1-9.39,2.73c-3.34.6-3.39-2-2.91-4.12,1.13-5.06,6.28-8.26,6.59-13.84.05-.76,2.25-2,3.41-.68C806.46,823.64,808.5,823.43,809,825.61Z" transform="translate(-10.24 -14.23)"/><path class="cls-1" d="M781.38,857.69c2.74,8.22,1,11.79-6.34,14.29-.94.32-1.74.95-2.56,0s-.31-1.76.32-2.56c1.81-2.33,1.89-5.75,5.24-7.2C779.36,861.67,780,859.61,781.38,857.69Z" transform="translate(-10.24 -14.23)"/><path class="cls-1" d="M194.84,879.76c1.61-5.55,3.17-6.1,7.62-2.69.43.33.93,1.06,1.25,1,9.14-2.24,3.35,4.06,4,6.93-2.88-3.21-6.46-3.11-10.1-2.81l0,0c-.13-1.73.36-4.16-2.8-2.43Z" transform="translate(-10.24 -14.23)"/><path class="cls-1" d="M310.65,922.31c-1.5-2.09-6.86,1.55-7.09-2.85-.22-4.16,4.27-1.57,6.43-2.58,1.23-.57,2.35-1.39,3.6-1.86a3.11,3.11,0,0,1,3.66,1.18c1.4,2.26-1,1.89-2,2.14C312.9,918.92,316.16,924.55,310.65,922.31Z" transform="translate(-10.24 -14.23)"/><path class="cls-1" d="M545.27,901.57c5-.84,3.88,6.28,8.09,7.16-.18.51-.2,1.3-.56,1.5-3.71,2.11-6.33-1.63-9.62-2.14-1.79-.28-1.24-4.06-.49-6.28C543,900.93,544,901.24,545.27,901.57Z" transform="translate(-10.24 -14.23)"/><path class="cls-1" d="M824.92,844.29c4.37-6.34,8.75-6.84,11.56-1.69.39.73.83,1.43.21,2s-1.72,1.05-1.9.87C831.93,842.62,828.32,844.66,824.92,844.29Z" transform="translate(-10.24 -14.23)"/><path class="cls-1" d="M767.92,826.73c-3.28.37-5-1.68-7.14-2.8-1.49-.78-2.16-1.67-1.26-3.16a2.52,2.52,0,0,1,4-.88C765.67,821.49,767.6,823.38,767.92,826.73Z" transform="translate(-10.24 -14.23)"/><path class="cls-1" d="M835.4,853.25c-.58-.07-1.31-.38-1.72-.15-2.38,1.36-4.4,1.29-5.34-1.54-.71-2.18.63-2.87,2.75-3.33,3.68-.8,4.39.87,4.12,3.89a5.16,5.16,0,0,0,.17,1.15l-.25-.28Z" transform="translate(-10.24 -14.23)"/><path class="cls-1" d="M525.54,890.82c4.38,2.71,1.57,5.79.54,8.66a1.84,1.84,0,0,1-2.91.7c-1.06-.83-.21-1.71.35-2.43A8.75,8.75,0,0,0,525.54,890.82Z" transform="translate(-10.24 -14.23)"/><path class="cls-1" d="M808.7,848.37c1.55.84,4.34.29,4.9,2.75.42,1.84-1.53,1.72-2.83,1.83-2.14.2-3.84-.4-4.39-2.68C806,848.57,807.24,848.46,808.7,848.37Z" transform="translate(-10.24 -14.23)"/><path class="cls-1" d="M510.55,897.23a14.86,14.86,0,0,1,3.11,1.39c1.11.84,3.19,1.29,2.25,3.43-.46,1.05-1.58,1-2.55,1-2,0-2.81-1-2.8-2.87,0-1,0-1.94,0-2.91Z" transform="translate(-10.24 -14.23)"/><path class="cls-1" d="M510.54,897.24c-1.4-.2-3.35.37-3.17-2.09a1.57,1.57,0,0,1,1.08-1.07c2.46-.18,1.9,1.76,2.1,3.15Z" transform="translate(-10.24 -14.23)"/><path class="cls-1" d="M304,931.48c.32.14.81.21.9.44s-.23.61-.36.92c-.32-.13-.82-.2-.91-.43S303.88,931.8,304,931.48Z" transform="translate(-10.24 -14.23)"/><path class="cls-1" d="M258.73,78.58c1.09,1.65,2.95-.72,4.45.85-1.87,1.54-4.27,2.08-5.21,4.46-.53,1.34-2,2.9-3.66,2.26-2.73-1,.22-3-.36-4.44C254.79,79.53,256.88,79.24,258.73,78.58Z" transform="translate(-10.24 -14.23)"/><path class="cls-1" d="M194.84,879.77c3.16-1.73,2.67.7,2.8,2.43Z" transform="translate(-10.24 -14.23)"/><path class="cls-1" d="M550.39,91.11c-1.76,0-3.52-.09-5.27,0-3.68.23-5.39-1.26-5.31-5.07.3-15.55-2.24-13.43,14.28-13.59,3.24,0,4.6,1.55,4.5,4.67-.07,1.94,0,3.88,0,5.82C558.58,91.11,558.58,91.11,550.39,91.11Z" transform="translate(-10.24 -14.23)"/><path class="cls-1" d="M758.44,833.58a2.41,2.41,0,0,1-2.07,1.68c-1.15.11-1.89-.47-1.86-1.56s.89-1.57,2-1.59S758.34,832.35,758.44,833.58Z" transform="translate(-10.24 -14.23)"/></svg>